<svg width="247" height="183" viewBox="0 0 247 183" fill="none" xmlns="http://www.w3.org/2000/svg">
<path d="M37.3586 58.6103C43.7208 47.4317 40.5651 44.1607 45.9636 33.6317C55.0144 15.9796 77.2678 -0.92991 98.8848 0.0397935C124.244 1.17736 126.671 25.9309 154.818 28.033C174.03 29.4679 178.886 18.3824 199.564 21.573C202.793 22.0713 222.885 25.4602 235.705 41.3836C255.767 66.3004 242.993 103.238 237.426 119.334C232.178 134.509 222.952 161.189 196.552 174.89C174.182 186.5 151.374 182.618 144.492 181.35C106.568 174.362 100.333 147.151 70.9183 148.189C49.088 148.958 43.9611 164.248 29.1837 159.817C7.17895 153.218 -8.13267 111.316 4.65929 89.6181C12.4415 76.4181 26.4382 77.7976 37.3586 58.6103Z" fill="#E1E7FF"/>
<path d="M2.49274 68.9515C-3.54104 63.9558 2.95805 48.1489 5.46355 42.055C8.83344 33.8589 11.5979 27.1352 18.087 25.4686C24.3162 23.8688 31.6451 27.5278 34.8612 32.7994C40.7127 42.3905 32.6187 56.7753 23.7463 63.6805C17.8595 68.2621 7.2934 72.9262 2.49274 68.9515Z" fill="#E1E7FF"/>
<path d="M202.905 120.432V164.061C202.905 164.873 202.66 165.628 202.239 166.256C202.075 166.501 201.883 166.728 201.669 166.93C201.611 166.985 201.551 167.038 201.49 167.089C200.806 167.662 199.925 168.006 198.964 168.006H127.233C126.276 168.006 125.398 167.664 124.715 167.097C124.651 167.043 124.588 166.987 124.528 166.93C124.314 166.728 124.122 166.502 123.957 166.256C123.604 165.73 123.375 165.114 123.31 164.45C123.297 164.322 123.291 164.192 123.291 164.06V120.432C123.291 120.3 123.297 120.171 123.31 120.042C123.406 119.068 123.855 118.198 124.528 117.562C124.588 117.505 124.651 117.449 124.715 117.396C125.398 116.828 126.276 116.486 127.233 116.486H198.964C199.925 116.486 200.806 116.831 201.49 117.403C201.551 117.454 201.611 117.507 201.669 117.562C202.43 118.282 202.905 119.301 202.905 120.432Z" fill="#8098EF"/>
<path d="M163.108 142.246L157.256 146.034L124.716 167.097C124.651 167.043 124.589 166.988 124.528 166.93C124.314 166.728 124.122 166.502 123.958 166.256C123.605 165.73 123.376 165.114 123.311 164.45V120.043C123.406 119.069 123.855 118.198 124.528 117.563C124.589 117.505 124.651 117.45 124.716 117.396L156.485 137.96L157.256 138.459L163.108 142.246Z" fill="#A7B8F6"/>
<path d="M202.905 120.432V164.061C202.905 164.873 202.66 165.628 202.239 166.256C202.075 166.502 201.883 166.728 201.669 166.93C201.611 166.985 201.551 167.038 201.49 167.089L168.949 146.027L163.107 142.246L168.949 138.466L169.72 137.967L201.49 117.403C201.551 117.454 201.611 117.508 201.669 117.562C202.43 118.282 202.905 119.302 202.905 120.432Z" fill="#A7B8F6"/>
<path d="M157.256 138.459L163.107 142.246L157.255 146.034L124.715 167.097C124.651 167.043 124.588 166.988 124.528 166.93C124.313 166.728 124.122 166.502 123.957 166.256L152.23 141.661L156.485 137.96L157.256 138.459Z" fill="#A7B8F6" fill-opacity="0.65"/>
<path d="M202.239 166.256C202.075 166.502 201.883 166.728 201.669 166.93C201.611 166.985 201.551 167.038 201.49 167.089L168.949 146.027L163.107 142.246L168.949 138.466L169.72 137.967L173.967 141.661L202.239 166.256Z" fill="#A7B8F6" fill-opacity="0.65"/>
<path d="M201.667 166.928C200.831 167.923 199.354 168.002 198.054 168.002C174.974 168.006 151.894 168.01 128.814 168.013C127.302 168.014 125.636 167.957 124.521 166.934C127.988 163.919 131.454 160.904 134.92 157.889C138.386 154.874 141.852 151.859 145.319 148.844C148.785 145.828 152.251 142.813 155.717 139.798C157.534 138.217 159.351 136.636 161.168 135.055C162.275 134.092 163.921 134.092 165.028 135.055L201.668 166.927C201.667 166.928 201.667 166.928 201.667 166.928Z" fill="#A7B8F6"/>
<path d="M201.678 117.562C201.62 117.508 201.561 117.454 201.499 117.403C200.815 116.831 199.934 116.487 198.973 116.487H127.242C126.285 116.487 125.407 116.828 124.725 117.396C124.66 117.449 124.598 117.505 124.537 117.562L152.911 142.247L157.265 146.034L161.252 149.502C162.316 150.428 163.899 150.428 164.964 149.502L168.958 146.027L173.304 142.247L201.678 117.562Z" fill="#8098EF"/>
<path d="M164.621 25.4902V157.511C164.621 162.687 160.373 166.883 155.134 166.883H94.9068C89.667 166.883 85.4199 162.687 85.4199 157.511V25.4902C85.4199 20.3137 89.667 16.1174 94.9068 16.1174H155.134C160.373 16.1174 164.621 20.3137 164.621 25.4902Z" fill="#F0F3FF"/>
<path d="M154.88 116.338H95.1639C93.6549 116.338 92.4316 115.113 92.4316 113.603C92.4316 112.092 93.6549 110.868 95.1639 110.868H154.88C156.389 110.868 157.613 112.092 157.613 113.603C157.613 115.113 156.389 116.338 154.88 116.338Z" fill="#A7B8F6"/>
<path d="M149.501 127.734H100.541C99.0319 127.734 97.8086 126.51 97.8086 124.999C97.8086 123.489 99.0319 122.264 100.541 122.264H149.501C151.01 122.264 152.234 123.489 152.234 124.999C152.234 126.51 151.01 127.734 149.501 127.734Z" fill="#A7B8F6"/>
<path d="M154.88 139.13H95.1639C93.6549 139.13 92.4316 137.906 92.4316 136.395C92.4316 134.885 93.6549 133.661 95.1639 133.661H154.88C156.389 133.661 157.613 134.885 157.613 136.395C157.613 137.906 156.389 139.13 154.88 139.13Z" fill="#A7B8F6"/>
<path d="M154.88 150.527H95.1639C93.6549 150.527 92.4316 149.302 92.4316 147.792C92.4316 146.281 93.6549 145.057 95.1639 145.057H154.88C156.389 145.057 157.613 146.281 157.613 147.792C157.613 149.302 156.389 150.527 154.88 150.527Z" fill="#A7B8F6"/>
<path d="M151.693 85.1919H98.3512C95.0819 85.1919 92.4316 82.5391 92.4316 79.2667V35.0743C92.4316 31.8018 95.0819 29.149 98.3512 29.149H151.693C154.962 29.149 157.613 31.8018 157.613 35.0743V79.2667C157.613 82.5391 154.962 85.1919 151.693 85.1919Z" fill="#A7B8F6"/>
<path d="M85.4197 139.452V139.915C86.3591 141.032 86.1173 142.562 86.1173 142.562C86.1308 142.637 86.1469 142.732 86.1655 142.847C86.343 143.917 86.7667 146.673 86.9448 149.977V134.524C86.5514 136.174 86.0524 137.847 85.4197 139.452ZM155.134 14.6109H94.907C88.8346 14.6109 83.8945 19.4913 83.8945 25.4897V157.51C83.8945 159.502 84.4391 161.371 85.3895 162.978C86.3868 164.666 87.8303 166.066 89.5586 167.018C91.1435 167.892 92.967 168.39 94.907 168.39H155.134C155.947 168.39 156.739 168.302 157.502 168.136C162.276 167.099 165.899 162.993 166.134 158.025C166.143 157.855 166.147 157.683 166.147 157.51V25.4897C166.147 19.4914 161.207 14.6109 155.134 14.6109ZM163.096 157.51C163.096 161.855 159.532 165.376 155.134 165.376H94.907C91.2561 165.376 88.1787 162.949 87.24 159.638C87.0478 158.962 86.9449 158.248 86.9449 157.51V25.4897C86.9449 21.1461 90.5095 17.6243 94.907 17.6243H99.3391C101.354 17.6243 103.174 18.7608 104.09 20.5333C105.163 22.607 107.346 24.0274 109.866 24.0274H140.175C141.965 24.0274 143.586 23.3111 144.758 22.152C145.237 21.6796 145.64 21.1338 145.95 20.5333C146.867 18.7608 148.688 17.6243 150.701 17.6243H155.134C159.532 17.6243 163.096 21.1461 163.096 25.4897L163.096 157.51Z" fill="#92AAFF"/>
<path d="M156.457 58.1518C156.409 58.1969 156.361 58.2406 156.311 58.2826C155.753 58.7531 155.036 59.0361 154.253 59.0361H95.8189C95.0392 59.0361 94.3243 58.7553 93.768 58.2885C93.7157 58.2446 93.6646 58.1989 93.6152 58.1518L116.73 37.8599L120.277 34.7462L123.524 31.8953C124.391 31.1341 125.681 31.1341 126.548 31.8954L129.802 34.752L133.342 37.8599L156.457 58.1518Z" fill="#8098EF"/>
<path d="M157.458 60.4803V96.3456C157.458 97.0136 157.258 97.6342 156.915 98.1501C156.781 98.3522 156.625 98.5384 156.45 98.7047C156.403 98.7498 156.354 98.7935 156.304 98.8356C155.747 99.306 155.03 99.5891 154.246 99.5891H95.8126C95.0328 99.5891 94.3179 99.3083 93.7616 98.8415C93.7094 98.7976 93.6582 98.7518 93.6089 98.7047C93.4345 98.5383 93.2784 98.3524 93.1441 98.1503C92.8568 97.7179 92.6701 97.2118 92.6171 96.6658C92.6067 96.5604 92.6016 96.4537 92.6016 96.3456V60.4803C92.6016 60.3722 92.6067 60.2654 92.6171 60.16C92.6948 59.3592 93.0608 58.6439 93.6089 58.1212C93.6582 58.074 93.7094 58.0283 93.7616 57.9844C94.3179 57.5176 95.0328 57.2368 95.8126 57.2368H154.247C155.03 57.2368 155.747 57.5198 156.304 57.9903C156.355 58.0324 156.403 58.0761 156.45 58.1211C157.07 58.7127 157.458 59.5509 157.458 60.4803Z" fill="#8098EF"/>
<path d="M146.576 83.9029H103.486C102.243 83.9029 101.234 82.8938 101.234 81.6489V54.9205C101.234 53.6757 102.243 52.6666 103.486 52.6666H146.576C147.82 52.6666 148.828 53.6757 148.828 54.9205V81.6489C148.828 82.8938 147.82 83.9029 146.576 83.9029Z" fill="#E1E7FF"/>
<path d="M131.016 57.6345H105.486C105.005 57.6345 104.615 57.2441 104.615 56.7626V56.7547C104.615 56.2732 105.005 55.8828 105.486 55.8828H131.016C131.497 55.8828 131.887 56.2732 131.887 56.7547V56.7626C131.887 57.2441 131.497 57.6345 131.016 57.6345Z" fill="#A7B8F6"/>
<path d="M142.434 61.0308H105.226C104.889 61.0308 104.615 60.7569 104.615 60.419V60.4135C104.615 60.0756 104.889 59.8016 105.226 59.8016H142.434C142.772 59.8016 143.046 60.0756 143.046 60.4135V60.419C143.046 60.7569 142.772 61.0308 142.434 61.0308Z" fill="#A7B8F6"/>
<path d="M142.434 63.6997H105.226C104.889 63.6997 104.615 63.4258 104.615 63.0879V63.0823C104.615 62.7444 104.889 62.4705 105.226 62.4705H142.434C142.772 62.4705 143.046 62.7444 143.046 63.0823V63.0879C143.046 63.4258 142.772 63.6997 142.434 63.6997Z" fill="#A7B8F6"/>
<path d="M136.889 66.6334H105.226C104.889 66.6334 104.615 66.3595 104.615 66.0216V66.016C104.615 65.6781 104.889 65.4042 105.226 65.4042H136.889C137.226 65.4042 137.5 65.6781 137.5 66.016V66.0216C137.5 66.3595 137.226 66.6334 136.889 66.6334Z" fill="#A7B8F6"/>
<path d="M125.039 78.4126L120.272 81.5265L93.7637 98.8414C93.7113 98.7975 93.6603 98.7518 93.6111 98.7046C93.4365 98.5383 93.2805 98.3525 93.1463 98.1504C92.8588 97.718 92.6721 97.2118 92.6191 96.666V60.1601C92.697 59.3594 93.063 58.644 93.6111 58.1214C93.6604 58.0742 93.7114 58.0285 93.7637 57.9846L119.644 74.889L120.272 75.2993L125.039 78.4126Z" fill="#A7B8F6"/>
<path d="M157.461 60.4801V96.3456C157.461 97.0134 157.262 97.6342 156.919 98.1501C156.785 98.3522 156.629 98.5381 156.454 98.7045C156.407 98.7497 156.358 98.7933 156.308 98.8354L129.8 81.5205L125.041 78.4125L129.799 75.305L130.428 74.8947L156.308 57.9903C156.358 58.0324 156.407 58.076 156.454 58.1212C157.074 58.7127 157.461 59.5508 157.461 60.4801Z" fill="#A7B8F6"/>
<path d="M120.273 75.2992L125.039 78.4125L120.272 81.5264L93.7638 98.8413C93.7115 98.7975 93.6605 98.7517 93.6113 98.7046C93.4367 98.5382 93.2806 98.3525 93.1465 98.1504L116.178 77.9318L119.644 74.8889L120.273 75.2992Z" fill="#A7B8F6" fill-opacity="0.65"/>
<path d="M156.919 98.1501C156.785 98.3522 156.629 98.5382 156.454 98.7045C156.407 98.7497 156.358 98.7933 156.308 98.8354L129.8 81.5205L125.041 78.4125L129.799 75.305L130.428 74.8947L133.887 77.9318L156.919 98.1501Z" fill="#A7B8F6" fill-opacity="0.65"/>
<path d="M156.45 98.7029C155.769 99.5211 154.566 99.5856 153.507 99.5858C134.706 99.5889 115.904 99.592 97.1022 99.5951C95.8705 99.5953 94.5132 99.5487 93.6055 98.7077C96.4291 96.2292 99.2527 93.7505 102.076 91.2719C104.9 88.7933 107.724 86.3147 110.547 83.8362C113.371 81.3575 116.195 78.879 119.018 76.4004C120.499 75.1009 121.979 73.8012 123.459 72.5015C124.361 71.7099 125.702 71.71 126.604 72.5015L156.451 98.7021C156.451 98.7024 156.451 98.7027 156.45 98.7029Z" fill="#A7B8F6"/>
<path d="M202.252 51.8592L237.593 26.8304L203.643 38.0883L202.252 51.8592Z" fill="#A7B8F6" fill-opacity="0.65"/>
<path d="M196.396 30.0269L203.643 38.0883L240.258 25.0659L207.734 44.0209L217.701 56.2262L240.258 25.0659L196.396 30.0269Z" fill="#A7B8F6"/>
<path d="M203.643 38.0884L202.252 51.8593L207.734 44.021L240.258 25.066L203.643 38.0884Z" fill="#A7B8F6"/>
<path d="M83.173 68.8855C83.1662 68.8855 83.1594 68.8853 83.1525 68.8851C82.9597 68.8785 82.7672 68.8725 82.5747 68.8674C82.2531 68.8588 81.9995 68.5908 82.008 68.2689C82.0166 67.947 82.2822 67.6925 82.606 67.7017C82.8013 67.7069 82.997 67.7129 83.1927 67.7197C83.5143 67.7308 83.7659 68.0007 83.7548 68.3225C83.744 68.6375 83.4854 68.8855 83.173 68.8855Z" fill="#92AAFF"/>
<path d="M74.41 69.0936C74.1101 69.0936 73.8554 68.8632 73.8301 68.5587C73.8036 68.2377 74.042 67.956 74.3626 67.9295C74.7522 67.8972 75.1477 67.8675 75.5381 67.8414C75.8592 67.8194 76.1367 68.063 76.1582 68.3843C76.1796 68.7056 75.9368 68.9835 75.6158 69.005C75.2315 69.0307 74.8422 69.0599 74.4587 69.0916C74.4424 69.093 74.4261 69.0936 74.41 69.0936ZM78.4969 68.8686C78.1826 68.8686 77.9236 68.618 77.9149 68.3015C77.9061 67.9796 78.1596 67.7115 78.4812 67.7027C78.8713 67.692 79.2678 67.6842 79.6596 67.6796C79.9816 67.6753 80.2451 67.9337 80.249 68.2557C80.2527 68.5777 79.9951 68.8418 79.6734 68.8456C79.2876 68.8502 78.8972 68.8579 78.5131 68.8684C78.5077 68.8686 78.5022 68.8686 78.4969 68.8686Z" fill="#92AAFF"/>
<path d="M56.7489 159.882C56.7465 159.882 56.7441 159.882 56.7416 159.882C56.3467 159.877 55.9492 159.868 55.5599 159.855C55.2384 159.845 54.9862 159.576 54.9968 159.254C55.0073 158.932 55.2763 158.681 55.598 158.69C55.9793 158.702 56.3689 158.711 56.756 158.716C57.0777 158.72 57.3353 158.984 57.3312 159.306C57.3273 159.626 57.0672 159.882 56.7489 159.882ZM59.6719 159.847C59.3599 159.847 59.1015 159.599 59.0901 159.285C59.0785 158.963 59.3298 158.693 59.6513 158.681C60.032 158.667 60.4216 158.65 60.809 158.628C61.1305 158.611 61.4049 158.857 61.4223 159.179C61.4398 159.501 61.1935 159.775 60.8723 159.793C60.4778 159.814 60.0811 159.832 59.6933 159.846C59.6861 159.847 59.6789 159.847 59.6719 159.847ZM52.66 159.683C52.6432 159.683 52.6263 159.683 52.6093 159.681C52.2157 159.647 51.8196 159.609 51.4319 159.566C51.1121 159.532 50.881 159.244 50.9158 158.924C50.9506 158.604 51.238 158.372 51.5579 158.407C51.9369 158.448 52.3244 158.486 52.7094 158.519C53.0299 158.547 53.2674 158.83 53.2397 159.15C53.2135 159.454 52.9591 159.683 52.66 159.683ZM63.7555 159.572C63.4583 159.572 63.2045 159.345 63.1762 159.043C63.1461 158.723 63.3814 158.439 63.7017 158.408L64.0128 158.379C64.2925 158.352 64.576 158.323 64.8556 158.293C65.1756 158.257 65.4631 158.489 65.4981 158.809C65.5332 159.129 65.3023 159.417 64.9825 159.452C64.6974 159.483 64.4083 159.513 64.1231 159.54L63.8106 159.569C63.7922 159.571 63.7737 159.572 63.7555 159.572ZM48.599 159.168C48.5666 159.168 48.5338 159.165 48.5008 159.159C48.1112 159.093 47.7191 159.021 47.3355 158.946C47.0198 158.884 46.8141 158.578 46.876 158.262C46.9379 157.946 47.244 157.74 47.5598 157.802C47.9337 157.875 48.3159 157.945 48.6959 158.01C49.0131 158.064 49.2266 158.365 49.1727 158.682C49.1244 158.967 48.8779 159.168 48.599 159.168ZM67.8093 159.063C67.5286 159.063 67.2813 158.86 67.235 158.573C67.1837 158.255 67.3994 157.956 67.717 157.905C68.0962 157.843 68.4793 157.777 68.8559 157.708C69.1725 157.649 69.476 157.859 69.5341 158.176C69.5923 158.492 69.3829 158.796 69.0665 158.854C68.6818 158.925 68.2904 158.993 67.9032 159.056C67.8716 159.061 67.8402 159.063 67.8093 159.063ZM44.5992 158.298C44.5493 158.298 44.4986 158.292 44.4482 158.278C44.0652 158.175 43.681 158.067 43.3066 157.954C42.9983 157.862 42.8232 157.537 42.9154 157.229C43.0075 156.92 43.3321 156.745 43.6404 156.837C44.0041 156.946 44.3773 157.052 44.7495 157.152C45.0603 157.235 45.2447 157.555 45.1615 157.866C45.0918 158.126 44.8564 158.298 44.5992 158.298ZM71.8142 158.258C71.5512 158.258 71.3127 158.079 71.2484 157.812C71.173 157.499 71.3654 157.184 71.6781 157.108C72.0524 157.018 72.4291 156.923 72.7979 156.825C73.1089 156.743 73.4278 156.928 73.5102 157.239C73.5926 157.55 73.4073 157.87 73.0963 157.952C72.7191 158.052 72.3338 158.15 71.9511 158.242C71.9053 158.253 71.8593 158.258 71.8142 158.258ZM75.7447 157.145C75.4993 157.145 75.2711 156.989 75.1909 156.743C75.0913 156.437 75.2584 156.108 75.5643 156.008C75.9289 155.889 76.2975 155.764 76.6597 155.637C76.9633 155.53 77.2957 155.69 77.4023 155.994C77.5088 156.298 77.3491 156.63 77.0455 156.737C76.6751 156.867 76.2982 156.995 75.9254 157.117C75.8654 157.136 75.8045 157.145 75.7447 157.145ZM40.7068 157.034C40.6371 157.034 40.5662 157.021 40.4973 156.995C40.1272 156.852 39.7564 156.702 39.3954 156.549C39.0992 156.423 38.961 156.081 39.0866 155.784C39.2123 155.488 39.5542 155.349 39.8503 155.475C40.1996 155.623 40.5583 155.769 40.9166 155.907C41.2167 156.023 41.3662 156.36 41.2505 156.661C41.1612 156.892 40.9407 157.034 40.7068 157.034ZM79.5762 155.728C79.3477 155.728 79.1307 155.592 79.0378 155.368C78.9147 155.07 79.0558 154.729 79.3531 154.606C79.7073 154.459 80.0649 154.306 80.4159 154.151C80.7102 154.022 81.0541 154.156 81.1836 154.45C81.3132 154.745 81.1795 155.089 80.885 155.219C80.5263 155.377 80.1609 155.533 79.7989 155.683C79.726 155.713 79.6505 155.728 79.5762 155.728ZM36.9834 155.338C36.8912 155.338 36.7977 155.316 36.7107 155.27C36.3609 155.084 36.0105 154.889 35.6695 154.691C35.3911 154.53 35.2963 154.173 35.4576 153.894C35.6189 153.616 35.9753 153.521 36.2537 153.682C36.5824 153.873 36.92 154.06 37.2572 154.24C37.5414 154.391 37.6493 154.744 37.4984 155.028C37.3937 155.225 37.1919 155.338 36.9834 155.338ZM83.2901 154.023C83.077 154.023 82.8716 153.905 82.7693 153.702C82.6247 153.414 82.7405 153.064 83.0278 152.919C83.3694 152.747 83.7153 152.568 84.0559 152.388C84.3403 152.238 84.6928 152.347 84.8431 152.631C84.9934 152.916 84.8846 153.269 84.6002 153.419C84.2527 153.603 83.8999 153.785 83.5514 153.961C83.4675 154.003 83.3781 154.023 83.2901 154.023ZM33.5052 153.185C33.3879 153.185 33.2695 153.15 33.1668 153.076C32.8445 152.845 32.523 152.605 32.2111 152.363C31.9571 152.165 31.9112 151.799 32.1085 151.545C32.3059 151.29 32.6719 151.244 32.9259 151.442C33.2257 151.675 33.5348 151.906 33.8446 152.128C34.1062 152.315 34.1666 152.679 33.9794 152.941C33.8657 153.1 33.6868 153.185 33.5052 153.185ZM86.8764 152.062C86.6769 152.062 86.4826 151.959 86.374 151.775C86.2107 151.497 86.3029 151.14 86.5801 150.977C86.9097 150.782 87.2437 150.581 87.5728 150.379C87.8471 150.211 88.2057 150.297 88.3739 150.571C88.542 150.846 88.4561 151.205 88.1818 151.373C87.8468 151.579 87.507 151.783 87.1716 151.981C87.0788 152.036 86.977 152.062 86.8764 152.062ZM30.3546 150.577C30.2102 150.577 30.0655 150.524 29.9527 150.416C29.8672 150.334 29.7819 150.252 29.697 150.169C29.498 149.975 29.2992 149.775 29.1062 149.575C28.8826 149.343 28.8889 148.974 29.1202 148.75C29.3515 148.526 29.7203 148.533 29.9438 148.764C30.1292 148.956 30.32 149.148 30.5112 149.335C30.5927 149.415 30.6745 149.494 30.7566 149.572C30.9895 149.794 30.9983 150.163 30.7762 150.396C30.6618 150.517 30.5083 150.577 30.3546 150.577ZM90.3348 149.881C90.147 149.881 89.9628 149.79 89.8504 149.622C89.6713 149.355 89.7428 148.993 90.0101 148.813C90.3261 148.602 90.6487 148.382 90.969 148.16C91.2335 147.977 91.5964 148.043 91.7794 148.308C91.9624 148.573 91.8963 148.936 91.6317 149.119C91.3068 149.344 90.9794 149.567 90.6586 149.782C90.559 149.849 90.4463 149.881 90.3348 149.881ZM27.6034 147.55C27.4311 147.55 27.2605 147.474 27.1456 147.328C26.901 147.017 26.6591 146.698 26.4269 146.377C26.2378 146.117 26.2956 145.752 26.5558 145.563C26.8161 145.374 27.1805 145.432 27.3695 145.692C27.5928 146 27.8253 146.307 28.0605 146.606C28.2597 146.859 28.2163 147.225 27.9637 147.425C27.8568 147.509 27.7296 147.55 27.6034 147.55ZM93.673 147.518C93.495 147.518 93.3193 147.437 93.2049 147.283C93.0131 147.024 93.0669 146.659 93.3251 146.467C93.632 146.239 93.9443 146.004 94.2532 145.768C94.509 145.573 94.8745 145.622 95.0696 145.878C95.2647 146.134 95.2154 146.5 94.9596 146.695C94.6469 146.934 94.3308 147.172 94.02 147.403C93.9156 147.481 93.7937 147.518 93.673 147.518ZM96.9038 145.009C96.7339 145.009 96.5653 144.935 96.4502 144.792C96.2482 144.542 96.2872 144.175 96.5375 143.972C96.8355 143.732 97.1388 143.484 97.439 143.237C97.6873 143.032 98.0544 143.067 98.259 143.316C98.4636 143.564 98.4281 143.932 98.1798 144.137C97.8766 144.387 97.5703 144.637 97.2694 144.88C97.1616 144.967 97.0323 145.009 96.9038 145.009ZM25.298 144.172C25.0985 144.172 24.9041 144.07 24.7955 143.885C24.5956 143.545 24.3987 143.196 24.2104 142.847C24.0573 142.564 24.1628 142.21 24.4458 142.057C24.7289 141.904 25.0823 142.01 25.2352 142.293C25.4169 142.629 25.6067 142.966 25.7994 143.293C25.9627 143.571 25.8703 143.928 25.5931 144.091C25.5002 144.146 25.3984 144.172 25.298 144.172ZM100.043 142.385C99.8794 142.385 99.7168 142.317 99.6016 142.183C99.3916 141.939 99.4189 141.571 99.6626 141.36C99.9513 141.111 100.247 140.854 100.542 140.596C100.784 140.384 101.152 140.408 101.364 140.651C101.576 140.893 101.551 141.261 101.309 141.473C101.012 141.734 100.714 141.993 100.423 142.244C100.313 142.339 100.178 142.385 100.043 142.385ZM23.4491 140.521C23.2236 140.521 23.009 140.389 22.914 140.168C22.7583 139.807 22.6059 139.437 22.4612 139.068C22.3436 138.768 22.4912 138.43 22.7907 138.312C23.0902 138.194 23.4282 138.342 23.5457 138.642C23.6857 138.999 23.8331 139.357 23.9836 139.706C24.1111 140.002 23.975 140.345 23.6796 140.473C23.6044 140.505 23.5262 140.521 23.4491 140.521ZM103.106 139.672C102.948 139.672 102.79 139.608 102.675 139.481C102.459 139.242 102.477 138.873 102.715 138.657C103.001 138.397 103.288 138.135 103.576 137.871C103.813 137.653 104.182 137.669 104.399 137.906C104.617 138.143 104.601 138.512 104.364 138.73C104.074 138.996 103.785 139.26 103.498 139.521C103.386 139.622 103.246 139.672 103.106 139.672ZM106.109 136.891C105.955 136.891 105.8 136.83 105.685 136.708C105.465 136.474 105.476 136.105 105.71 135.884C105.991 135.618 106.274 135.351 106.557 135.081C106.79 134.859 107.159 134.868 107.381 135.102C107.602 135.335 107.593 135.704 107.36 135.926C107.075 136.197 106.792 136.466 106.509 136.733C106.396 136.839 106.253 136.891 106.109 136.891ZM22.0459 136.673C21.7959 136.673 21.5649 136.511 21.4886 136.259C21.3747 135.883 21.2645 135.499 21.1611 135.116C21.0771 134.806 21.2606 134.485 21.5712 134.401C21.8817 134.317 22.2016 134.501 22.2856 134.812C22.386 135.183 22.493 135.556 22.6034 135.921C22.6968 136.229 22.5229 136.554 22.215 136.648C22.1587 136.665 22.1018 136.673 22.0459 136.673ZM109.066 134.06C108.914 134.06 108.762 134.001 108.647 133.883C108.423 133.652 108.429 133.283 108.66 133.059C108.938 132.789 109.217 132.518 109.497 132.244C109.727 132.019 110.096 132.024 110.32 132.254C110.545 132.484 110.541 132.854 110.31 133.079C110.03 133.353 109.75 133.625 109.471 133.896C109.358 134.006 109.212 134.06 109.066 134.06ZM21.0609 132.697C20.7879 132.697 20.5443 132.504 20.4899 132.225C20.4146 131.84 20.3432 131.447 20.2779 131.057C20.2246 130.74 20.4386 130.439 20.7559 130.386C21.0732 130.333 21.3735 130.547 21.4268 130.864C21.4904 131.244 21.5599 131.627 21.6331 132.001C21.6949 132.317 21.4891 132.624 21.1734 132.686C21.1357 132.693 21.098 132.697 21.0609 132.697ZM111.987 131.193C111.837 131.193 111.687 131.136 111.573 131.021C111.347 130.792 111.349 130.423 111.577 130.196C111.852 129.923 112.129 129.649 112.406 129.373C112.634 129.145 113.003 129.146 113.23 129.375C113.457 129.603 113.456 129.972 113.228 130.2C112.95 130.476 112.673 130.751 112.397 131.025C112.283 131.137 112.135 131.193 111.987 131.193ZM20.4611 128.643C20.1661 128.643 19.9132 128.42 19.8823 128.12C19.8423 127.73 19.8064 127.333 19.7757 126.939C19.7506 126.618 19.9903 126.338 20.311 126.312C20.6323 126.287 20.9121 126.527 20.9372 126.848C20.9672 127.233 21.0022 127.62 21.0413 128.001C21.0742 128.321 20.8415 128.607 20.5214 128.64C20.501 128.642 20.4809 128.643 20.4611 128.643ZM114.884 128.301C114.735 128.301 114.587 128.245 114.473 128.131C114.245 127.904 114.244 127.535 114.471 127.307C114.745 127.032 115.02 126.756 115.295 126.478C115.522 126.249 115.891 126.248 116.119 126.475C116.347 126.702 116.349 127.071 116.122 127.299C115.846 127.578 115.571 127.855 115.297 128.13C115.183 128.244 115.034 128.301 114.884 128.301ZM117.765 125.393C117.617 125.393 117.469 125.337 117.356 125.225C117.127 124.999 117.125 124.63 117.351 124.401C117.623 124.125 117.897 123.847 118.172 123.568C118.398 123.339 118.767 123.336 118.996 123.562C119.225 123.789 119.228 124.158 119.002 124.387C118.726 124.666 118.452 124.944 118.18 125.22C118.066 125.336 117.916 125.393 117.765 125.393ZM20.2137 124.554C19.8974 124.554 19.6379 124.3 19.6316 123.982C19.6246 123.633 19.6211 123.277 19.6211 122.925L19.6212 122.799C19.6219 122.477 19.8825 122.217 20.2037 122.217C20.2041 122.217 20.2045 122.217 20.2049 122.217C20.5266 122.217 20.7869 122.479 20.7862 122.801L20.7861 122.925C20.7861 123.269 20.7896 123.617 20.7964 123.959C20.8028 124.281 20.5472 124.547 20.2256 124.554C20.2217 124.554 20.2177 124.554 20.2137 124.554ZM120.638 122.477C120.491 122.477 120.343 122.421 120.23 122.309C120 122.083 119.997 121.714 120.223 121.485L121.043 120.651C121.269 120.421 121.638 120.418 121.867 120.644C122.096 120.87 122.099 121.239 121.874 121.469L121.053 122.303C120.939 122.419 120.789 122.477 120.638 122.477ZM20.2905 120.458C20.2794 120.458 20.2684 120.458 20.2573 120.457C19.9361 120.439 19.6904 120.163 19.7084 119.842C19.7304 119.452 19.7569 119.055 19.7872 118.662C19.8119 118.341 20.0913 118.1 20.4128 118.126C20.7336 118.15 20.9735 118.431 20.9488 118.752C20.919 119.136 20.8931 119.525 20.8716 119.908C20.8542 120.218 20.5972 120.458 20.2905 120.458ZM123.508 119.558C123.361 119.558 123.213 119.502 123.1 119.39C122.871 119.164 122.868 118.795 123.093 118.566L123.914 117.732C124.14 117.502 124.508 117.499 124.738 117.725C124.967 117.951 124.97 118.321 124.744 118.55L123.924 119.384C123.81 119.5 123.659 119.558 123.508 119.558ZM126.381 116.641C126.233 116.641 126.085 116.585 125.972 116.473C125.743 116.246 125.741 115.877 125.967 115.648C126.239 115.372 126.513 115.094 126.789 114.815C127.015 114.586 127.384 114.584 127.613 114.811C127.841 115.037 127.843 115.406 127.617 115.635C127.342 115.914 127.068 116.191 126.796 116.468C126.682 116.583 126.531 116.641 126.381 116.641ZM20.6687 116.379C20.6439 116.379 20.6188 116.378 20.5935 116.375C20.2744 116.333 20.0491 116.041 20.0902 115.722C20.1402 115.333 20.195 114.939 20.253 114.551C20.3005 114.233 20.5973 114.014 20.9153 114.061C21.2334 114.108 21.4528 114.405 21.4053 114.724C21.3484 115.104 21.2948 115.49 21.2457 115.871C21.2079 116.165 20.9573 116.379 20.6687 116.379ZM129.26 113.73C129.112 113.73 128.963 113.674 128.85 113.561C128.621 113.334 128.62 112.965 128.847 112.737C129.12 112.461 129.395 112.184 129.672 111.906C129.898 111.678 130.267 111.677 130.495 111.904C130.723 112.131 130.724 112.5 130.497 112.729C130.221 113.006 129.947 113.283 129.673 113.558C129.56 113.673 129.41 113.73 129.26 113.73ZM21.334 112.338C21.296 112.338 21.2574 112.335 21.2186 112.327C20.9032 112.263 20.699 111.956 20.7623 111.64C20.8397 111.255 20.9218 110.866 21.0064 110.484C21.0761 110.17 21.387 109.972 21.7013 110.041C22.0153 110.111 22.2135 110.423 22.1438 110.737C22.0609 111.111 21.9804 111.492 21.9045 111.87C21.8489 112.147 21.6058 112.338 21.334 112.338ZM132.149 110.829C132 110.829 131.851 110.772 131.737 110.659C131.51 110.431 131.51 110.062 131.737 109.834C132.012 109.559 132.288 109.283 132.565 109.007C132.793 108.779 133.162 108.78 133.389 109.008C133.616 109.236 133.616 109.605 133.388 109.832C133.111 110.109 132.835 110.384 132.561 110.659C132.447 110.773 132.298 110.829 132.149 110.829ZM22.2802 108.354C22.229 108.354 22.1769 108.347 22.1251 108.333C21.815 108.247 21.6328 107.926 21.7183 107.616C21.8228 107.236 21.9323 106.854 22.0439 106.479C22.1358 106.17 22.4601 105.995 22.7685 106.087C23.0768 106.179 23.2523 106.503 23.1604 106.812C23.0511 107.179 22.9438 107.554 22.8415 107.926C22.7703 108.184 22.5358 108.354 22.2802 108.354ZM135.05 107.941C134.9 107.941 134.75 107.883 134.636 107.768C134.41 107.539 134.412 107.17 134.64 106.943C134.916 106.67 135.194 106.395 135.472 106.12C135.701 105.894 136.07 105.896 136.296 106.125C136.522 106.354 136.52 106.724 136.291 106.95C136.012 107.225 135.736 107.499 135.46 107.772C135.346 107.885 135.198 107.941 135.05 107.941ZM137.965 105.067C137.814 105.067 137.663 105.008 137.549 104.891C137.324 104.661 137.328 104.292 137.558 104.067C137.835 103.795 138.114 103.522 138.394 103.248C138.625 103.023 138.993 103.027 139.218 103.258C139.443 103.488 139.438 103.857 139.208 104.082C138.929 104.356 138.65 104.628 138.373 104.9C138.26 105.011 138.112 105.067 137.965 105.067ZM23.5106 104.447C23.4456 104.447 23.3795 104.436 23.3148 104.413C23.0118 104.305 22.8539 103.971 22.9621 103.668C23.0949 103.295 23.2328 102.922 23.3721 102.558C23.487 102.257 23.8238 102.106 24.1242 102.221C24.4247 102.336 24.5751 102.673 24.4602 102.974C24.3241 103.33 24.1892 103.696 24.0592 104.06C23.9742 104.299 23.7499 104.447 23.5106 104.447ZM140.897 102.209C140.745 102.209 140.593 102.149 140.478 102.031C140.255 101.8 140.261 101.431 140.492 101.207C140.771 100.936 141.051 100.665 141.333 100.392C141.565 100.169 141.934 100.175 142.157 100.407C142.38 100.639 142.374 101.008 142.142 101.232C141.861 101.503 141.581 101.774 141.302 102.044C141.189 102.154 141.043 102.209 140.897 102.209ZM25.0394 100.648C24.9591 100.648 24.8776 100.631 24.7997 100.596C24.5066 100.463 24.3764 100.117 24.509 99.824C24.5464 99.7412 24.584 99.6587 24.6217 99.5765C24.748 99.301 24.8788 99.0231 25.0104 98.7504C25.1503 98.4603 25.4986 98.3388 25.7883 98.4789C26.078 98.6189 26.1995 98.9676 26.0595 99.2575C25.9312 99.5235 25.8036 99.7946 25.6804 100.063C25.6436 100.143 25.607 100.224 25.5705 100.305C25.4732 100.52 25.2612 100.648 25.0394 100.648ZM143.846 99.3685C143.692 99.3685 143.539 99.3082 143.425 99.1884C143.202 98.9557 143.21 98.5865 143.443 98.3639C143.724 98.0951 144.006 97.8255 144.29 97.5551C144.522 97.3329 144.891 97.3418 145.113 97.5751C145.335 97.8083 145.326 98.1774 145.093 98.3995C144.81 98.6694 144.528 98.9384 144.248 99.2068C144.135 99.3148 143.99 99.3685 143.846 99.3685ZM26.8871 96.9951C26.7902 96.9951 26.6922 96.9709 26.6019 96.92C26.3215 96.762 26.2222 96.4065 26.38 96.1259C26.5726 95.7835 26.772 95.4389 26.9728 95.1017C27.1375 94.8252 27.495 94.7346 27.7714 94.8994C28.0478 95.0642 28.1382 95.4222 27.9736 95.6988C27.7777 96.0278 27.5831 96.3638 27.3952 96.6979C27.2882 96.8881 27.0906 96.9951 26.8871 96.9951ZM146.812 96.5473C146.658 96.5473 146.503 96.4859 146.389 96.3644C146.168 96.1301 146.179 95.7611 146.412 95.5401C146.695 95.2731 146.979 95.0054 147.264 94.7369C147.499 94.5163 147.867 94.5277 148.088 94.7623C148.308 94.9968 148.297 95.3659 148.063 95.5865C147.778 95.8545 147.494 96.1218 147.212 96.3883C147.099 96.4946 146.956 96.5473 146.812 96.5473ZM149.798 93.7461C149.642 93.7461 149.486 93.6837 149.372 93.5603C149.152 93.3246 149.166 92.9557 149.401 92.7362C149.686 92.471 149.972 92.2053 150.259 91.9388C150.495 91.7199 150.863 91.7338 151.082 91.97C151.301 92.2062 151.287 92.5751 151.051 92.7939C150.764 93.0599 150.479 93.3251 150.195 93.5897C150.083 93.6943 149.94 93.7461 149.798 93.7461ZM29.0454 93.518C28.9323 93.518 28.818 93.4851 28.7175 93.4164C28.4519 93.2349 28.3835 92.8721 28.5649 92.6061C28.7858 92.2821 29.0143 91.9558 29.2439 91.636C29.4317 91.3745 29.7957 91.3149 30.0569 91.5028C30.3181 91.6907 30.3776 92.0551 30.1899 92.3165C29.9657 92.6287 29.7427 92.9473 29.5271 93.2637C29.4143 93.429 29.2314 93.518 29.0454 93.518ZM152.803 90.9658C152.646 90.9658 152.489 90.9024 152.374 90.7771C152.156 90.5398 152.172 90.171 152.409 89.9532C152.696 89.6901 152.983 89.4263 153.272 89.1619C153.51 88.9446 153.878 88.9613 154.095 89.1989C154.312 89.4366 154.296 89.8054 154.058 90.0227C153.77 90.2865 153.483 90.5498 153.197 90.8123C153.085 90.9151 152.944 90.9658 152.803 90.9658ZM31.4932 90.2357C31.3639 90.2357 31.2339 90.1929 31.1259 90.1049C30.8763 89.9017 30.8386 89.5344 31.0416 89.2846C31.2892 88.98 31.5444 88.6736 31.7998 88.374C32.0087 88.1291 32.3764 88.1 32.6211 88.3091C32.8658 88.5181 32.8948 88.8862 32.686 89.1311C32.4364 89.4238 32.1872 89.723 31.9454 90.0206C31.8303 90.1622 31.6624 90.2357 31.4932 90.2357ZM155.828 88.2069C155.669 88.2069 155.511 88.1423 155.396 88.015C155.18 87.7762 155.198 87.4075 155.437 87.1914C155.725 86.9303 156.015 86.6686 156.306 86.4063C156.545 86.1908 156.913 86.21 157.129 86.4492C157.344 86.6884 157.325 87.0571 157.086 87.2727C156.795 87.5345 156.506 87.7956 156.219 88.0562C156.107 88.1572 155.967 88.2069 155.828 88.2069ZM34.2048 87.1657C34.0598 87.1657 33.9147 87.1119 33.8017 87.0035C33.5695 86.7807 33.5617 86.4116 33.7843 86.1791C34.0557 85.8958 34.3348 85.611 34.6139 85.3326C34.8418 85.1053 35.2106 85.1059 35.4377 85.334C35.6648 85.5621 35.6642 85.9313 35.4363 86.1586C35.1634 86.4308 34.8905 86.7092 34.6253 86.9862C34.511 87.1056 34.358 87.1657 34.2048 87.1657ZM158.873 85.4698C158.712 85.4698 158.553 85.404 158.438 85.2748C158.224 85.0344 158.245 84.6658 158.485 84.4516C158.775 84.1925 159.067 83.9329 159.36 83.6728C159.6 83.4589 159.968 83.4809 160.182 83.7217C160.395 83.9625 160.374 84.331 160.133 84.5448C159.841 84.8044 159.55 85.0635 159.26 85.322C159.149 85.4211 159.011 85.4698 158.873 85.4698ZM37.1537 84.3209C36.9933 84.3209 36.8337 84.2551 36.7187 84.1259C36.5046 83.8855 36.5257 83.5169 36.7659 83.3026C37.0586 83.0415 37.359 82.7792 37.659 82.5232C37.9038 82.3142 38.2714 82.3434 38.4802 82.5885C38.689 82.8335 38.6598 83.2015 38.415 83.4105C38.1215 83.661 37.8275 83.9176 37.5411 84.1732C37.4301 84.2722 37.2917 84.3209 37.1537 84.3209ZM161.938 82.7549C161.776 82.7549 161.615 82.6878 161.5 82.5567C161.287 82.3148 161.311 81.9463 161.553 81.7338C161.845 81.4769 162.139 81.2194 162.433 80.9614C162.675 80.7494 163.043 80.7739 163.255 81.0163C163.467 81.2587 163.442 81.627 163.2 81.8391C162.906 82.0965 162.613 82.3534 162.322 82.6098C162.211 82.7071 162.074 82.7549 161.938 82.7549ZM40.3133 81.7105C40.138 81.7105 39.9647 81.6316 39.85 81.4815C39.6547 81.2256 39.7035 80.8597 39.9591 80.6641C40.2704 80.4259 40.5897 80.1869 40.9081 79.9538C41.1678 79.7637 41.5323 79.8202 41.7222 80.0801C41.9121 80.34 41.8556 80.7048 41.596 80.8949C41.2841 81.1233 40.9715 81.3573 40.6666 81.5906C40.561 81.6714 40.4366 81.7105 40.3133 81.7105ZM165.022 80.0623C164.859 80.0623 164.697 79.994 164.582 79.8607C164.371 79.6172 164.398 79.249 164.641 79.0383L164.871 78.8392C165.09 78.6497 165.309 78.4607 165.527 78.2724C165.771 78.0622 166.138 78.0894 166.348 78.3333C166.558 78.5772 166.531 78.9453 166.288 79.1557C166.07 79.3436 165.852 79.5321 165.633 79.7215L165.403 79.9201C165.293 80.0155 165.158 80.0623 165.022 80.0623ZM43.6576 79.3402C43.4679 79.3402 43.2817 79.2475 43.1699 79.0767C42.9936 78.8074 43.0687 78.4459 43.3378 78.2694C43.6656 78.0543 44.0013 77.839 44.3354 77.6293C44.6079 77.4582 44.9675 77.5407 45.1383 77.8136C45.3092 78.0865 45.2267 78.4463 44.9542 78.6174C44.6267 78.8228 44.2978 79.0339 43.9764 79.2447C43.8779 79.3093 43.7672 79.3402 43.6576 79.3402ZM168.127 77.3922C167.963 77.3922 167.799 77.3228 167.684 77.1875C167.475 76.9425 167.504 76.5745 167.749 76.3655C168.047 76.1108 168.345 75.8577 168.641 75.606C168.886 75.3976 169.253 75.4276 169.462 75.673C169.67 75.9185 169.64 76.2865 169.395 76.4949C169.099 76.7461 168.803 76.9986 168.505 77.2527C168.395 77.3464 168.261 77.3922 168.127 77.3922ZM47.1598 77.2144C46.9558 77.2144 46.7578 77.107 46.6511 76.9162C46.4939 76.6352 46.594 76.2799 46.8747 76.1225C47.2155 75.9315 47.564 75.7405 47.9104 75.5551C48.1941 75.4032 48.5471 75.5104 48.6987 75.7943C48.8505 76.0783 48.7435 76.4316 48.4598 76.5834C48.12 76.7654 47.7782 76.9526 47.444 77.14C47.3539 77.1904 47.2562 77.2144 47.1598 77.2144ZM50.7954 75.3346C50.5775 75.3346 50.3686 75.2117 50.2689 75.0016C50.1308 74.7107 50.2544 74.3629 50.545 74.2247C50.8975 74.0571 51.2578 73.8899 51.6158 73.7277C51.909 73.5951 52.2541 73.7253 52.3866 74.0186C52.5192 74.312 52.3891 74.6575 52.096 74.7902C51.7445 74.9493 51.3909 75.1135 51.045 75.278C50.9643 75.3164 50.8792 75.3346 50.7954 75.3346ZM171.251 74.7449C171.085 74.7449 170.92 74.6742 170.805 74.5369C170.598 74.2903 170.63 73.9226 170.876 73.7154C171.177 73.4628 171.476 73.2118 171.773 72.9625C172.02 72.7559 172.388 72.7885 172.594 73.0355C172.801 73.2824 172.768 73.6501 172.521 73.8568C172.224 74.1057 171.926 74.3562 171.626 74.6083C171.517 74.7 171.384 74.7449 171.251 74.7449ZM54.5465 73.6979C54.315 73.6979 54.0961 73.5588 54.0052 73.3304C53.8862 73.0313 54.032 72.6922 54.3309 72.573C54.6934 72.4285 55.0636 72.2849 55.4311 72.1461C55.7321 72.0323 56.0682 72.1845 56.1817 72.4858C56.2953 72.7871 56.1434 73.1235 55.8423 73.2372C55.4814 73.3735 55.1179 73.5146 54.7619 73.6565C54.6912 73.6846 54.6182 73.6979 54.5465 73.6979ZM58.394 72.3031C58.1489 72.3031 57.9208 72.147 57.8405 71.9012C57.7404 71.5952 57.9072 71.2659 58.213 71.1657C58.5856 71.0437 58.9638 70.9234 59.3372 70.8083C59.6449 70.7136 59.9707 70.8861 60.0654 71.1939C60.1601 71.5016 59.9877 71.828 59.6802 71.9227C59.3133 72.0358 58.9415 72.1541 58.5754 72.274C58.5151 72.2937 58.454 72.3031 58.394 72.3031ZM174.395 72.1203C174.227 72.1203 174.061 72.0484 173.946 71.9091C173.741 71.6611 173.775 71.2935 174.023 71.0881C174.325 70.8376 174.626 70.5887 174.925 70.3417C175.174 70.1368 175.541 70.1722 175.745 70.4206C175.95 70.6691 175.915 71.0365 175.667 71.2414C175.368 71.4879 175.068 71.7363 174.766 71.9863C174.657 72.0764 174.526 72.1203 174.395 72.1203ZM62.32 71.1481C62.0615 71.1481 61.8253 70.9744 61.7569 70.7123C61.6755 70.4007 61.8619 70.0822 62.1731 70.0007C62.5511 69.9018 62.9358 69.8047 63.3166 69.7119C63.6293 69.636 63.9443 69.8277 64.0203 70.1406C64.0963 70.4535 63.9046 70.7689 63.592 70.845C63.2176 70.9362 62.8394 71.0317 62.4678 71.1289C62.4184 71.1419 62.3688 71.1481 62.32 71.1481ZM66.308 70.2301C66.0359 70.2301 65.7926 70.0381 65.7374 69.7608C65.6745 69.445 65.8794 69.1379 66.1949 69.0751C66.5788 68.9985 66.9685 68.9242 67.3532 68.8542C67.67 68.7965 67.973 69.0066 68.0305 69.3234C68.0881 69.6402 67.8782 69.9438 67.5617 70.0015C67.1834 70.0703 66.8001 70.1434 66.4225 70.2187C66.384 70.2263 66.3458 70.2301 66.308 70.2301ZM70.3429 69.5464C70.057 69.5464 69.8075 69.3355 69.7668 69.044C69.7222 68.7251 69.9444 68.4304 70.263 68.3858C70.6501 68.3316 71.0433 68.2798 71.4317 68.2318C71.7514 68.1922 72.0418 68.4195 72.0812 68.7391C72.1206 69.0586 71.8937 69.3497 71.5745 69.3892C71.1923 69.4364 70.8053 69.4874 70.4243 69.5407C70.397 69.5444 70.3698 69.5464 70.3429 69.5464ZM177.557 69.5187C177.388 69.5187 177.221 69.4454 177.105 69.3042C176.902 69.0547 176.939 68.6873 177.189 68.4838C177.493 68.2352 177.796 67.9886 178.096 67.7439C178.346 67.541 178.713 67.5788 178.916 67.8288C179.119 68.0787 179.081 68.4459 178.831 68.649C178.531 68.8932 178.229 69.1393 177.925 69.3874C177.817 69.4756 177.687 69.5187 177.557 69.5187ZM180.738 66.94C180.568 66.94 180.399 66.8656 180.284 66.7223C180.082 66.4713 180.122 66.1043 180.373 65.9025C180.679 65.6559 180.984 65.4115 181.286 65.1693C181.537 64.968 181.904 65.0087 182.105 65.26C182.306 65.5114 182.265 65.8783 182.014 66.0796C181.712 66.3213 181.409 66.5652 181.103 66.8114C180.995 66.898 180.866 66.94 180.738 66.94ZM183.938 64.3847C183.766 64.3847 183.596 64.3089 183.481 64.1636C183.281 63.9111 183.324 63.5444 183.576 63.3445C183.885 63.0998 184.191 62.8576 184.495 62.618C184.747 62.4185 185.114 62.462 185.313 62.7148C185.512 62.9677 185.469 63.3343 185.216 63.5337C184.913 63.7728 184.607 64.0145 184.299 64.2587C184.192 64.3435 184.065 64.3847 183.938 64.3847ZM187.157 61.8528C186.983 61.8528 186.812 61.7757 186.697 61.6283C186.499 61.3744 186.544 61.008 186.798 60.81C187.109 60.567 187.417 60.3271 187.722 60.0902C187.976 59.8928 188.342 59.9387 188.539 60.1931C188.736 60.4474 188.69 60.8138 188.436 61.0113C188.132 61.2477 187.825 61.4871 187.514 61.7295C187.408 61.8126 187.282 61.8528 187.157 61.8528ZM190.394 59.3448C190.219 59.3448 190.046 59.2664 189.931 59.1169C189.735 58.8616 189.783 58.4954 190.038 58.2993C190.352 58.058 190.662 57.8204 190.968 57.5864C191.223 57.3909 191.589 57.4396 191.784 57.6954C191.98 57.9512 191.931 58.3171 191.675 58.5127C191.37 58.7462 191.061 58.9834 190.748 59.2242C190.642 59.3054 190.517 59.3448 190.394 59.3448ZM193.649 56.861C193.473 56.861 193.299 56.7812 193.184 56.6296C192.99 56.3728 193.041 56.0071 193.297 55.8129C193.614 55.5728 193.926 55.3375 194.232 55.1069C194.489 54.9132 194.854 54.9648 195.048 55.222C195.241 55.4793 195.19 55.8449 194.933 56.0385C194.627 56.2686 194.317 56.5034 194 56.7429C193.895 56.8225 193.772 56.861 193.649 56.861Z" fill="#92AAFF"/>
<path d="M196.979 54.3599C196.802 54.3599 196.626 54.2787 196.512 54.125C196.32 53.8667 196.373 53.5014 196.631 53.3091C196.789 53.1914 196.945 53.0753 197.099 52.9609C197.357 52.7689 197.722 52.8228 197.914 53.0813C198.106 53.3399 198.052 53.7051 197.794 53.8971C197.64 54.0113 197.484 54.1271 197.327 54.2445C197.222 54.3224 197.1 54.3599 196.979 54.3599Z" fill="#92AAFF"/>
<path d="M63.6542 152.8L61.6742 151.36L64.5182 147.688L60.0722 146.338L60.8282 144.016L65.2022 145.564L65.0942 140.902H67.5422L67.4342 145.564L71.7902 144.016L72.5462 146.338L68.1182 147.688L70.9262 151.36L68.9462 152.8L66.3182 148.984L63.6542 152.8Z" fill="black"/>
<path d="M68.0421 170.024C78.877 170.024 87.6604 161.147 87.6604 150.197C87.6604 139.246 78.877 130.369 68.0421 130.369C57.2072 130.369 48.4238 139.246 48.4238 150.197C48.4238 161.147 57.2072 170.024 68.0421 170.024Z" fill="#A7B8F6" fill-opacity="0.65"/>
</svg>
