<svg width="25" height="25" viewBox="0 0 25 25" fill="none" xmlns="http://www.w3.org/2000/svg">
<g clip-path="url(#clip0_6615_2390)">
<path d="M3.33333 19.0713H2.72222C2.39807 19.0713 2.08719 18.9434 1.85798 18.7156C1.62877 18.4879 1.5 18.179 1.5 17.857C1.5 16.8908 1.88631 15.9641 2.57394 15.2809C3.26158 14.5977 4.19421 14.2139 5.16667 14.2139H6.38889M6.38889 10.5102C5.94011 10.419 5.51771 10.2287 5.15293 9.9534C4.78816 9.67812 4.49035 9.32487 4.28154 8.91979C4.07272 8.51471 3.95825 8.06816 3.94658 7.61319C3.93491 7.15822 4.02635 6.70647 4.21413 6.29135C4.40191 5.87623 4.68123 5.50837 5.03142 5.21498C5.38161 4.9216 5.79371 4.71019 6.23723 4.59641C6.68075 4.48262 7.14435 4.46937 7.59373 4.55764C8.0431 4.6459 8.46675 4.83342 8.83333 5.10632M21.6667 19.0713H22.2778C22.6019 19.0713 22.9128 18.9434 23.142 18.7156C23.3712 18.4879 23.5 18.179 23.5 17.857C23.5 16.8908 23.1137 15.9641 22.4261 15.2809C21.7384 14.5977 20.8058 14.2139 19.8333 14.2139H18.6111M18.6111 10.5102C19.0599 10.419 19.4823 10.2287 19.8471 9.9534C20.2118 9.67812 20.5096 9.32487 20.7185 8.91979C20.9273 8.51471 21.0418 8.06816 21.0534 7.61319C21.0651 7.15822 20.9736 6.70647 20.7859 6.29135C20.5981 5.87623 20.3188 5.50837 19.9686 5.21498C19.6184 4.9216 19.2063 4.71019 18.7628 4.59641C18.3192 4.48262 17.8556 4.46937 17.4063 4.55764C16.9569 4.6459 16.5333 4.83342 16.1667 5.10632M16.7778 21.5H8.22222C7.89807 21.5 7.58719 21.3721 7.35798 21.1443C7.12877 20.9166 7 20.6077 7 20.2857C7 19.3195 7.38631 18.3928 8.07394 17.7096C8.76157 17.0264 9.69421 16.6426 10.6667 16.6426H14.3333C15.3058 16.6426 16.2384 17.0264 16.9261 17.7096C17.6137 18.3928 18 19.3195 18 20.2857C18 20.6077 17.8712 20.9166 17.642 21.1443C17.4128 21.3721 17.1019 21.5 16.7778 21.5ZM15.5556 9.96371C15.5556 10.7689 15.2336 11.5411 14.6606 12.1104C14.0876 12.6797 13.3104 12.9996 12.5 12.9996C11.6896 12.9996 10.9124 12.6797 10.3394 12.1104C9.76637 11.5411 9.44444 10.7689 9.44444 9.96371C9.44444 9.15855 9.76637 8.38636 10.3394 7.81703C10.9124 7.24769 11.6896 6.92784 12.5 6.92784C13.3104 6.92784 14.0876 7.24769 14.6606 7.81703C15.2336 8.38636 15.5556 9.15855 15.5556 9.96371Z" stroke="white" stroke-opacity="0.5" stroke-width="2" stroke-linecap="round"/>
</g>
<defs>
<clipPath id="clip0_6615_2390">
<rect width="24" height="24" fill="white" transform="translate(0.5 0.5)"/>
</clipPath>
</defs>
</svg>
