<svg width="25" height="25" viewBox="0 0 25 25" fill="none" xmlns="http://www.w3.org/2000/svg">
<path d="M18.5 15.5V9.5C18.5 6.672 18.5 5.257 17.621 4.379C16.743 3.5 15.328 3.5 12.5 3.5H8.5C5.672 3.5 4.257 3.5 3.379 4.379C2.5 5.257 2.5 6.672 2.5 9.5V15.5C2.5 18.328 2.5 19.743 3.379 20.621C4.257 21.5 5.672 21.5 8.5 21.5H20.5M6.5 8.5H14.5M6.5 12.5H14.5M6.5 16.5H10.5" stroke="white" stroke-opacity="0.5" stroke-width="2" stroke-linecap="round" stroke-linejoin="round"/>
<path d="M18.5 8.5H19.5C20.914 8.5 21.621 8.5 22.06 8.94C22.5 9.379 22.5 10.086 22.5 11.5V19.5C22.5 20.0304 22.2893 20.5391 21.9142 20.9142C21.5391 21.2893 21.0304 21.5 20.5 21.5C19.9696 21.5 19.4609 21.2893 19.0858 20.9142C18.7107 20.5391 18.5 20.0304 18.5 19.5V8.5Z" stroke="white" stroke-opacity="0.5" stroke-width="2" stroke-linecap="round" stroke-linejoin="round"/>
</svg>
