<svg width="25" height="25" viewBox="0 0 25 25" fill="none" xmlns="http://www.w3.org/2000/svg">
<path d="M15.5 17.5C14.7 18.122 13.65 18.5 12.5 18.5C11.35 18.5 10.3 18.122 9.5 17.5" stroke="white" stroke-opacity="0.5" stroke-width="2" stroke-linecap="round" stroke-linejoin="round"/>
<path d="M2.85204 13.714C2.49804 11.416 2.32204 10.268 2.75604 9.249C3.19004 8.23 4.15404 7.534 6.08104 6.141L7.52104 5.1C9.91804 3.367 11.117 2.5 12.501 2.5C13.883 2.5 15.081 3.367 17.479 5.1L18.919 6.141C20.846 7.534 21.809 8.231 22.244 9.249C22.678 10.268 22.502 11.416 22.149 13.713L21.848 15.673C21.348 18.929 21.097 20.557 19.929 21.529C18.761 22.501 17.054 22.5 13.64 22.5H11.36C7.94504 22.5 6.23804 22.5 5.07004 21.529C3.90204 20.557 3.65204 18.929 3.15204 15.672L2.85204 13.714Z" stroke="white" stroke-opacity="0.5" stroke-width="2" stroke-linecap="round" stroke-linejoin="round"/>
</svg>
