<svg width="210" height="110" viewBox="0 0 210 110" fill="none" xmlns="http://www.w3.org/2000/svg">
<path d="M74.7514 16.8452C74.7434 16.8452 74.7354 16.8451 74.7273 16.8448C74.5005 16.838 74.274 16.8319 74.0477 16.8267C73.6694 16.8178 73.371 16.5435 73.3811 16.214C73.3912 15.8844 73.7035 15.6239 74.0844 15.6333C74.3142 15.6387 74.5443 15.6448 74.7746 15.6517C75.1528 15.6631 75.4487 15.9394 75.4357 16.2689C75.4229 16.5913 75.1188 16.8452 74.7514 16.8452Z" fill="#848AD9"/>
<path d="M64.4403 17.0582C64.0875 17.0582 63.7879 16.8223 63.7582 16.5105C63.727 16.182 64.0074 15.8936 64.3845 15.8664C64.8428 15.8334 65.3079 15.803 65.7671 15.7763C66.1448 15.7538 66.4712 16.0031 66.4965 16.3321C66.5217 16.6609 66.2361 16.9454 65.8585 16.9675C65.4065 16.9938 64.9486 17.0236 64.4976 17.0562C64.4784 17.0575 64.4592 17.0582 64.4403 17.0582ZM69.2473 16.8278C68.8776 16.8278 68.573 16.5713 68.5627 16.2473C68.5524 15.9178 68.8506 15.6433 69.2288 15.6343C69.6877 15.6233 70.154 15.6154 70.6148 15.6106C70.9937 15.6062 71.3036 15.8707 71.3081 16.2004C71.3125 16.53 71.0095 16.8004 70.6311 16.8043C70.1774 16.809 69.7182 16.8169 69.2664 16.8277C69.26 16.8278 69.2536 16.8278 69.2473 16.8278Z" fill="#848AD9"/>
<path d="M43.67 110C43.6671 110 43.6642 110 43.6614 110C43.1969 109.995 42.7293 109.986 42.2715 109.973C41.8932 109.962 41.5966 109.686 41.609 109.357C41.6214 109.027 41.9379 108.771 42.3162 108.78C42.7648 108.792 43.223 108.801 43.6783 108.806C44.0566 108.81 44.3596 109.081 44.3549 109.41C44.3502 109.738 44.0444 110 43.67 110ZM47.108 109.964C46.741 109.964 46.4371 109.711 46.4237 109.388C46.4101 109.059 46.7056 108.782 47.0837 108.77C47.5316 108.756 47.9898 108.738 48.4454 108.717C48.8237 108.699 49.1463 108.951 49.1668 109.28C49.1874 109.609 48.8977 109.891 48.5199 109.909C48.0559 109.931 47.5893 109.949 47.1331 109.963C47.1247 109.964 47.1162 109.964 47.108 109.964ZM38.8606 109.797C38.8408 109.797 38.821 109.796 38.8009 109.794C38.338 109.76 37.872 109.72 37.416 109.677C37.0399 109.641 36.7681 109.347 36.809 109.019C36.8499 108.691 37.188 108.455 37.5642 108.49C38.0101 108.532 38.4658 108.571 38.9187 108.605C39.2956 108.633 39.575 108.923 39.5424 109.251C39.5116 109.562 39.2123 109.797 38.8606 109.797ZM51.9111 109.683C51.5615 109.683 51.2631 109.451 51.2298 109.141C51.1944 108.813 51.4711 108.522 51.8479 108.491L52.2138 108.461C52.5427 108.434 52.8763 108.404 53.2051 108.373C53.5814 108.337 53.9196 108.573 53.9608 108.901C54.002 109.229 53.7305 109.524 53.3544 109.559C53.0191 109.591 52.679 109.622 52.3435 109.65L51.976 109.68C51.9543 109.682 51.9325 109.683 51.9111 109.683ZM34.084 109.269C34.0459 109.269 34.0073 109.266 33.9685 109.26C33.5102 109.192 33.049 109.119 32.5978 109.042C32.2266 108.978 31.9846 108.665 32.0574 108.341C32.1302 108.018 32.4902 107.807 32.8616 107.87C33.3014 107.946 33.751 108.017 34.1979 108.083C34.571 108.138 34.8221 108.447 34.7587 108.772C34.7019 109.063 34.4121 109.269 34.084 109.269ZM56.6793 109.162C56.3491 109.162 56.0583 108.953 56.0038 108.66C55.9434 108.335 56.1971 108.028 56.5707 107.976C57.0167 107.913 57.4673 107.845 57.9102 107.774C58.2827 107.714 58.6396 107.929 58.708 108.253C58.7764 108.577 58.5302 108.888 58.158 108.948C57.7055 109.02 57.2452 109.09 56.7897 109.154C56.7525 109.159 56.7156 109.162 56.6793 109.162ZM29.3794 108.379C29.3207 108.379 29.2611 108.372 29.2017 108.358C28.7512 108.253 28.2995 108.141 27.859 108.027C27.4965 107.932 27.2904 107.6 27.3989 107.284C27.5073 106.968 27.889 106.789 28.2516 106.883C28.6794 106.994 29.1183 107.103 29.5562 107.205C29.9217 107.29 30.1386 107.617 30.0408 107.936C29.9588 108.203 29.682 108.379 29.3794 108.379ZM61.3898 108.338C61.0805 108.338 60.7999 108.154 60.7243 107.881C60.6356 107.56 60.8619 107.238 61.2298 107.16C61.6699 107.068 62.1131 106.97 62.5469 106.87C62.9127 106.786 63.2877 106.976 63.3847 107.294C63.4816 107.613 63.2636 107.94 62.8979 108.024C62.4542 108.127 62.001 108.227 61.5509 108.321C61.4969 108.332 61.4429 108.338 61.3898 108.338ZM66.0129 107.198C65.7243 107.198 65.4559 107.038 65.3615 106.786C65.2443 106.473 65.4409 106.136 65.8007 106.034C66.2296 105.912 66.6631 105.784 67.0891 105.654C67.4462 105.545 67.8372 105.708 67.9625 106.019C68.0878 106.331 67.9 106.671 67.5429 106.78C67.1073 106.913 66.664 107.044 66.2254 107.169C66.1548 107.189 66.0832 107.198 66.0129 107.198ZM24.8011 107.084C24.7192 107.084 24.6358 107.072 24.5547 107.044C24.1194 106.898 23.6833 106.744 23.2586 106.587C22.9103 106.459 22.7477 106.108 22.8954 105.805C23.0432 105.501 23.4455 105.36 23.7937 105.488C24.2046 105.64 24.6265 105.789 25.0479 105.931C25.4008 106.049 25.5767 106.395 25.4406 106.702C25.3356 106.939 25.0762 107.084 24.8011 107.084ZM70.5196 105.747C70.2507 105.747 69.9956 105.608 69.8863 105.378C69.7415 105.074 69.9075 104.725 70.2571 104.599C70.6737 104.448 71.0943 104.292 71.5072 104.133C71.8533 104.001 72.2578 104.138 72.4102 104.44C72.5626 104.741 72.4053 105.093 72.0589 105.226C71.637 105.388 71.2072 105.548 70.7815 105.701C70.6957 105.732 70.6069 105.747 70.5196 105.747ZM20.4216 105.348C20.3132 105.348 20.2033 105.325 20.1008 105.278C19.6894 105.088 19.2773 104.888 18.8762 104.686C18.5488 104.521 18.4372 104.155 18.6269 103.87C18.8167 103.585 19.2359 103.488 19.5633 103.653C19.95 103.848 20.347 104.04 20.7437 104.224C21.0779 104.378 21.2049 104.74 21.0274 105.031C20.9042 105.233 20.6669 105.348 20.4216 105.348ZM74.8879 104.002C74.6372 104.002 74.3956 103.882 74.2753 103.673C74.1052 103.379 74.2413 103.02 74.5793 102.872C74.9811 102.696 75.388 102.513 75.7886 102.328C76.1231 102.174 76.5377 102.286 76.7145 102.577C76.8913 102.869 76.7633 103.23 76.4288 103.384C76.0201 103.572 75.6051 103.758 75.1952 103.938C75.0965 103.981 74.9914 104.002 74.8879 104.002ZM16.3306 103.144C16.1926 103.144 16.0533 103.108 15.9325 103.032C15.5535 102.796 15.1753 102.551 14.8084 102.302C14.5096 102.1 14.4557 101.725 14.6878 101.465C14.9199 101.204 15.3504 101.157 15.6492 101.36C16.0018 101.598 16.3654 101.834 16.7297 102.062C17.0375 102.253 17.1085 102.626 16.8884 102.894C16.7546 103.057 16.5441 103.144 16.3306 103.144ZM79.1061 101.994C78.8714 101.994 78.6429 101.889 78.5151 101.7C78.323 101.416 78.4315 101.051 78.7575 100.883C79.1452 100.684 79.5381 100.478 79.9252 100.272C80.2478 100.099 80.6696 100.187 80.8674 100.468C81.0652 100.749 80.9641 101.117 80.6414 101.289C80.2475 101.5 79.8477 101.709 79.4532 101.912C79.3441 101.968 79.2243 101.994 79.1061 101.994ZM12.6248 100.474C12.4549 100.474 12.2847 100.42 12.1521 100.309C12.0515 100.226 11.9512 100.142 11.8514 100.057C11.6173 99.8575 11.3835 99.6527 11.1564 99.4481C10.8935 99.2111 10.9008 98.8332 11.1729 98.6041C11.4449 98.375 11.8787 98.3814 12.1417 98.6183C12.3597 98.8148 12.5842 99.0114 12.809 99.2027C12.9049 99.2844 13.0011 99.3653 13.0977 99.4454C13.3715 99.673 13.3819 100.051 13.1207 100.289C12.9861 100.412 12.8056 100.474 12.6248 100.474ZM83.1739 99.7617C82.953 99.7617 82.7363 99.6689 82.6041 99.497C82.3934 99.2232 82.4775 98.8524 82.7919 98.6689C83.1636 98.4519 83.5431 98.2268 83.9198 97.9998C84.231 97.8123 84.6577 97.8801 84.873 98.1512C85.0882 98.4223 85.0105 98.7941 84.6993 98.9817C84.3171 99.2119 83.932 99.4404 83.5547 99.6606C83.4375 99.729 83.305 99.7617 83.1739 99.7617ZM9.3888 97.3754C9.1862 97.3754 8.98552 97.2974 8.85034 97.148C8.56264 96.8301 8.27816 96.5028 8.00499 96.1751C7.78259 95.9084 7.85056 95.5351 8.15669 95.3413C8.46282 95.1477 8.89138 95.2067 9.11371 95.4734C9.3764 95.7885 9.64984 96.1032 9.92644 96.4089C10.1608 96.6677 10.1098 97.0431 9.81263 97.2471C9.68684 97.3335 9.53727 97.3754 9.3888 97.3754ZM87.1003 97.343C86.8909 97.343 86.6842 97.2597 86.5497 97.1021C86.324 96.8374 86.3874 96.4636 86.6911 96.267C87.0521 96.0332 87.4193 95.7924 87.7827 95.551C88.0836 95.3511 88.5135 95.4017 88.743 95.6638C88.9724 95.926 88.9145 96.3005 88.6135 96.5004C88.2458 96.7447 87.874 96.9886 87.5084 97.2252C87.3856 97.3046 87.2423 97.343 87.1003 97.343ZM90.9004 94.7744C90.7005 94.7744 90.5022 94.6986 90.3669 94.5524C90.1292 94.296 90.1751 93.9202 90.4696 93.713C90.82 93.4666 91.1767 93.2131 91.5298 92.9597C91.8219 92.7502 92.2537 92.7865 92.4943 93.0409C92.735 93.2953 92.6932 93.6715 92.4011 93.8811C92.0446 94.137 91.6843 94.393 91.3304 94.6419C91.2036 94.731 91.0515 94.7744 90.9004 94.7744ZM6.67717 93.9176C6.4425 93.9176 6.21394 93.8124 6.08622 93.6235C5.85108 93.2757 5.61943 92.9184 5.39792 92.5612C5.21793 92.2713 5.34194 91.909 5.67485 91.7523C6.00784 91.5955 6.42352 91.7036 6.60337 91.9935C6.81701 92.3378 7.0403 92.6823 7.26695 93.0176C7.45899 93.3016 7.3504 93.6675 7.02433 93.8348C6.91505 93.8909 6.79536 93.9176 6.67717 93.9176ZM94.5928 92.0881C94.4003 92.0881 94.209 92.0178 94.0735 91.8808C93.8265 91.631 93.8586 91.2542 94.1453 91.039C94.4848 90.784 94.8328 90.5208 95.1794 90.2565C95.4641 90.0394 95.897 90.0644 96.1462 90.3125C96.3954 90.5606 96.3667 90.9377 96.0819 91.1548C95.7326 91.4212 95.382 91.6865 95.0398 91.9433C94.9103 92.0405 94.7512 92.0881 94.5928 92.0881ZM4.50256 90.1794C4.23733 90.1794 3.98485 90.0444 3.87311 89.8189C3.68996 89.449 3.51073 89.0699 3.34053 88.6919C3.20227 88.385 3.37582 88.0387 3.72806 87.9183C4.08036 87.7978 4.47796 87.949 4.61615 88.2559C4.7808 88.6215 4.95414 88.9882 5.13125 89.3459C5.28116 89.6486 5.12105 89.9998 4.7736 90.1304C4.68522 90.1637 4.5932 90.1794 4.50256 90.1794ZM98.196 89.3106C98.0093 89.3106 97.8234 89.2446 97.6881 89.1146C97.434 88.8703 97.4553 88.4928 97.7356 88.2715C98.0723 88.0056 98.4099 87.7373 98.7485 87.4667C99.0273 87.2438 99.4607 87.26 99.7165 87.5029C99.9724 87.7458 99.9537 88.1234 99.6749 88.3462C99.3343 88.6185 98.9947 88.8885 98.6559 89.1559C98.5248 89.2596 98.3601 89.3106 98.196 89.3106ZM101.728 86.4639C101.546 86.4639 101.364 86.401 101.229 86.2763C100.97 86.0364 100.983 85.6586 101.258 85.4325C101.589 85.1608 101.921 84.8869 102.254 84.6108C102.529 84.3836 102.962 84.3932 103.223 84.632C103.484 84.8709 103.473 85.2487 103.199 85.4759C102.864 85.7533 102.53 86.0284 102.198 86.3014C102.066 86.4101 101.897 86.4639 101.728 86.4639ZM2.85202 86.2407C2.55802 86.2407 2.28629 86.0746 2.19653 85.8168C2.06258 85.432 1.93302 85.0384 1.81141 84.6469C1.71254 84.3287 1.92843 84.0009 2.29369 83.9147C2.65894 83.8284 3.03516 84.0167 3.13403 84.3349C3.25215 84.7149 3.37795 85.097 3.50785 85.4703C3.61761 85.7858 3.41309 86.119 3.05092 86.2148C2.9848 86.2323 2.91786 86.2407 2.85202 86.2407ZM105.205 83.566C105.026 83.566 104.848 83.5053 104.713 83.3847C104.45 83.148 104.456 82.7701 104.728 82.5406C105.055 82.2645 105.383 81.9865 105.712 81.7064C105.983 81.4762 106.417 81.4808 106.681 81.7166C106.945 81.9526 106.94 82.3305 106.669 82.5608C106.339 82.8417 106.01 83.1206 105.682 83.3976C105.549 83.51 105.377 83.566 105.205 83.566ZM1.69349 82.1697C1.37243 82.1697 1.08583 81.9722 1.02184 81.6874C0.933317 81.2932 0.849383 80.8909 0.772508 80.4917C0.709885 80.1666 0.96161 79.8587 1.33475 79.8042C1.70802 79.75 2.06122 79.969 2.12384 80.294C2.19873 80.6827 2.2804 81.0744 2.36659 81.458C2.43922 81.7816 2.19715 82.0952 1.8258 82.1584C1.78147 82.166 1.73714 82.1697 1.69349 82.1697ZM108.641 80.6309C108.465 80.6309 108.288 80.5719 108.154 80.454C107.888 80.2197 107.89 79.8418 108.159 79.6098C108.483 79.3306 108.808 79.0496 109.135 78.7669C109.403 78.5343 109.837 78.5355 110.103 78.7693C110.37 79.003 110.369 79.381 110.101 79.6134C109.774 79.8967 109.448 80.1784 109.123 80.4582C108.99 80.5734 108.816 80.6309 108.641 80.6309ZM0.987991 78.0204C0.641097 78.0204 0.343535 77.7917 0.30729 77.4845C0.26022 77.0855 0.218015 76.6788 0.181839 76.2758C0.152378 75.9472 0.43425 75.66 0.811496 75.6342C1.18936 75.6086 1.51844 75.8541 1.54804 76.1828C1.58332 76.5761 1.6245 76.973 1.67047 77.3624C1.70918 77.6904 1.4354 77.9835 1.05897 78.0172C1.03499 78.0194 1.01135 78.0204 0.987991 78.0204ZM112.049 77.6703C111.874 77.6703 111.699 77.6123 111.565 77.4962C111.297 77.2636 111.296 76.8857 111.564 76.6521C111.885 76.3709 112.208 76.0879 112.533 75.8033C112.799 75.5693 113.233 75.5681 113.502 75.8005C113.77 76.0328 113.772 76.4107 113.505 76.6446C113.18 76.9296 112.856 77.213 112.534 77.4946C112.4 77.6117 112.225 77.6703 112.049 77.6703ZM115.438 74.6934C115.264 74.6934 115.09 74.636 114.956 74.5211C114.687 74.2893 114.685 73.9114 114.951 73.6769C115.271 73.3944 115.593 73.1103 115.916 72.8247C116.182 72.59 116.616 72.5875 116.885 72.819C117.155 73.0505 117.158 73.4284 116.892 73.6631C116.568 73.949 116.246 74.2333 115.925 74.5161C115.791 74.6341 115.615 74.6934 115.438 74.6934ZM0.697076 73.8336C0.325038 73.8336 0.0198004 73.5742 0.0123323 73.2486C0.00411042 72.8908 0 72.5267 0 72.1667L0.000138001 72.037C0.00089167 71.7077 0.307495 71.4413 0.685221 71.4413C0.6857 71.4413 0.686182 71.4413 0.68673 71.4413C1.06507 71.442 1.37127 71.7097 1.37045 72.0395L1.37031 72.1668C1.37031 72.5189 1.37442 72.8749 1.38236 73.2249C1.3899 73.5545 1.08933 73.827 0.710985 73.8335C0.706395 73.8335 0.701735 73.8336 0.697076 73.8336ZM118.817 71.7077C118.643 71.7077 118.47 71.6507 118.336 71.5362C118.067 71.3049 118.063 70.927 118.329 70.692L119.293 69.8382C119.559 69.6032 119.993 69.6002 120.262 69.8315C120.532 70.0627 120.535 70.4406 120.27 70.6755L119.305 71.5296C119.171 71.6483 118.994 71.7077 118.817 71.7077ZM0.787379 69.6407C0.774361 69.6407 0.761409 69.6404 0.748254 69.6398C0.37046 69.6212 0.0814622 69.3394 0.102702 69.0102C0.128532 68.6106 0.15971 68.2042 0.195338 67.8023C0.224457 67.4736 0.553055 67.227 0.93126 67.2532C1.30851 67.2786 1.59072 67.5656 1.5616 67.8943C1.52666 68.2879 1.49617 68.686 1.47089 69.0774C1.45033 69.3951 1.14811 69.6407 0.787379 69.6407ZM122.193 68.7194C122.019 68.7194 121.846 68.6623 121.712 68.5478C121.443 68.3166 121.439 67.9387 121.705 67.7037L122.67 66.8498C122.935 66.615 123.369 66.6121 123.639 66.8435C123.908 67.0748 123.912 67.4528 123.646 67.6877L122.681 68.5413C122.547 68.6599 122.37 68.7194 122.193 68.7194ZM125.572 65.7333C125.398 65.7333 125.224 65.676 125.09 65.5611C124.821 65.3295 124.818 64.9516 125.084 64.717C125.405 64.434 125.727 64.1499 126.051 63.8645C126.317 63.63 126.751 63.628 127.02 63.8597C127.289 64.0915 127.292 64.4694 127.026 64.7038C126.702 64.9891 126.38 65.2731 126.059 65.5558C125.925 65.6741 125.749 65.7333 125.572 65.7333ZM1.23225 65.4655C1.20299 65.4655 1.17346 65.4639 1.14373 65.4606C0.768468 65.4184 0.503452 65.1191 0.551824 64.7922C0.61061 64.3946 0.675079 63.9914 0.743252 63.5939C0.799161 63.2679 1.14818 63.0438 1.5222 63.0918C1.89644 63.1406 2.15446 63.4444 2.09856 63.7705C2.03168 64.16 1.96859 64.5552 1.91089 64.945C1.86636 65.2459 1.5716 65.4655 1.23225 65.4655ZM128.958 62.7538C128.783 62.7538 128.609 62.696 128.475 62.5805C128.207 62.3481 128.205 61.9702 128.472 61.7363C128.794 61.454 129.117 61.1707 129.442 60.8862C129.709 60.6525 130.143 60.6515 130.411 60.884C130.679 61.1165 130.68 61.4945 130.413 61.7282C130.089 62.0125 129.766 62.2956 129.444 62.5775C129.31 62.695 129.134 62.7538 128.958 62.7538ZM2.01476 61.3286C1.97002 61.3286 1.9246 61.3248 1.87903 61.3168C1.50802 61.2518 1.26781 60.9371 1.34235 60.614C1.43334 60.2196 1.52995 59.8215 1.62943 59.4307C1.71138 59.1089 2.07704 58.9058 2.44675 58.9773C2.81612 59.0487 3.04921 59.3675 2.96726 59.6893C2.86977 60.0723 2.77508 60.4626 2.6858 60.8493C2.62037 61.1327 2.33439 61.3286 2.01476 61.3286ZM132.356 59.784C132.18 59.784 132.005 59.7257 131.871 59.609C131.604 59.3758 131.604 58.9979 131.872 58.7648C132.195 58.4835 132.519 58.2013 132.846 57.9179C133.114 57.6852 133.547 57.6858 133.815 57.9192C134.082 58.1526 134.081 58.5306 133.813 58.7634C133.487 59.0464 133.163 59.3283 132.84 59.6093C132.706 59.7258 132.531 59.784 132.356 59.784ZM3.12766 57.2498C3.06743 57.2498 3.00618 57.2428 2.94527 57.2282C2.58043 57.1406 2.36618 56.812 2.46676 56.4942C2.58961 56.1057 2.71841 55.7142 2.84976 55.3303C2.95781 55.0143 3.33923 54.8345 3.70196 54.9286C4.06461 55.0228 4.27104 55.3552 4.163 55.6711C4.03439 56.0472 3.90819 56.4308 3.7878 56.8113C3.70408 57.076 3.4283 57.2498 3.12766 57.2498ZM135.768 56.8268C135.592 56.8268 135.415 56.7678 135.281 56.6499C135.015 56.4156 135.017 56.0376 135.286 55.8057C135.611 55.5257 135.937 55.2446 136.265 54.9627C136.534 54.7311 136.968 54.7336 137.234 54.9682C137.5 55.2028 137.497 55.5807 137.228 55.8124C136.9 56.0939 136.574 56.3744 136.25 56.6541C136.117 56.7693 135.942 56.8268 135.768 56.8268ZM139.197 53.8844C139.02 53.8844 138.842 53.8245 138.708 53.7052C138.443 53.4697 138.447 53.0918 138.718 52.861C139.044 52.5824 139.372 52.3029 139.702 52.0225C139.973 51.7923 140.406 51.7968 140.671 52.0326C140.935 52.2685 140.93 52.6464 140.659 52.8767C140.33 53.1566 140.003 53.4357 139.677 53.7138C139.543 53.8276 139.37 53.8844 139.197 53.8844ZM4.57491 53.2503C4.49844 53.2503 4.42068 53.2391 4.34456 53.2154C3.98821 53.1045 3.80247 52.763 3.9297 52.4525C4.08591 52.0713 4.24816 51.6889 4.41191 51.3159C4.54709 51.008 4.94325 50.8537 5.29658 50.9716C5.65005 51.0893 5.82696 51.4343 5.69178 51.7423C5.53166 52.107 5.37297 52.4811 5.22012 52.8539C5.12015 53.0981 4.8563 53.2503 4.57491 53.2503ZM142.645 50.9587C142.466 50.9587 142.287 50.8979 142.153 50.777C141.89 50.5402 141.897 50.1623 142.169 49.933C142.497 49.6559 142.827 49.3781 143.159 49.0994C143.431 48.8706 143.865 48.8772 144.127 49.1146C144.39 49.3519 144.382 49.7297 144.11 49.9586C143.779 50.2367 143.45 50.5141 143.122 50.7906C142.989 50.9028 142.817 50.9587 142.645 50.9587ZM6.37303 49.3606C6.27861 49.3606 6.18276 49.3435 6.09109 49.3074C5.74632 49.1715 5.59325 48.8179 5.7492 48.5175C5.79318 48.4328 5.83737 48.3483 5.88177 48.2642C6.03031 47.9821 6.1842 47.6976 6.33897 47.4184C6.50348 47.1215 6.91313 46.9971 7.25393 47.1405C7.59466 47.2838 7.73751 47.6408 7.57294 47.9376C7.422 48.2099 7.27195 48.4874 7.12704 48.7624C7.08374 48.8445 7.04064 48.9269 6.99775 49.0096C6.88326 49.2301 6.63393 49.3606 6.37303 49.3606ZM146.114 48.0512C145.933 48.0512 145.753 47.9895 145.618 47.8668C145.357 47.6286 145.366 47.2507 145.64 47.0228C145.97 46.7476 146.302 46.4716 146.636 46.1948C146.91 45.9674 147.343 45.9765 147.604 46.2153C147.865 46.454 147.855 46.8318 147.581 47.0592C147.248 47.3355 146.917 47.611 146.587 47.8857C146.454 47.9963 146.284 48.0512 146.114 48.0512ZM8.54627 45.6215C8.43239 45.6215 8.31708 45.5967 8.21081 45.5446C7.88105 45.3829 7.76423 45.0189 7.94984 44.7317C8.17635 44.3812 8.41095 44.0284 8.64712 43.6833C8.84081 43.4001 9.26129 43.3074 9.58647 43.4761C9.9115 43.6449 10.0179 44.0113 9.82421 44.2945C9.59386 44.6312 9.36496 44.9753 9.14399 45.3173C9.01813 45.512 8.78566 45.6215 8.54627 45.6215ZM149.603 45.1631C149.421 45.1631 149.239 45.1003 149.105 44.9758C148.845 44.7361 148.858 44.3582 149.133 44.132C149.465 43.8587 149.799 43.5846 150.135 43.3098C150.41 43.0839 150.844 43.0956 151.103 43.3357C151.363 43.5759 151.349 43.9537 151.074 44.1795C150.739 44.4539 150.405 44.7275 150.073 45.0004C149.941 45.1092 149.772 45.1631 149.603 45.1631ZM153.115 42.2955C152.931 42.2955 152.748 42.2316 152.613 42.1053C152.355 41.864 152.371 41.4863 152.648 41.2616C152.983 40.9902 153.319 40.7181 153.657 40.4453C153.934 40.2212 154.368 40.2355 154.625 40.4772C154.882 40.719 154.866 41.0967 154.588 41.3207C154.251 41.593 153.916 41.8645 153.582 42.1354C153.45 42.2425 153.282 42.2955 153.115 42.2955ZM11.085 42.062C10.9519 42.062 10.8175 42.0283 10.6993 41.958C10.3868 41.7722 10.3064 41.4007 10.5197 41.1285C10.7796 40.7968 11.0483 40.4627 11.3184 40.1353C11.5393 39.8676 11.9674 39.8066 12.2746 39.999C12.5818 40.1913 12.6519 40.5644 12.4311 40.832C12.1674 41.1516 11.9051 41.4778 11.6515 41.8016C11.5188 41.9709 11.3037 42.062 11.085 42.062ZM156.65 39.4493C156.464 39.4493 156.28 39.3843 156.145 39.256C155.889 39.0131 155.907 38.6355 156.186 38.4127C156.523 38.1433 156.861 37.8732 157.201 37.6025C157.481 37.3801 157.914 37.3971 158.169 37.6404C158.425 37.8838 158.405 38.2613 158.126 38.4837C157.787 38.7538 157.449 39.0233 157.113 39.2921C156.981 39.3973 156.815 39.4493 156.65 39.4493ZM13.964 38.7018C13.8119 38.7018 13.6591 38.658 13.532 38.5679C13.2385 38.3599 13.1941 37.9839 13.4329 37.7282C13.7241 37.4164 14.0242 37.1027 14.3247 36.796C14.5704 36.5452 15.0029 36.5155 15.2906 36.7295C15.5785 36.9435 15.6126 37.3203 15.367 37.571C15.0734 37.8707 14.7803 38.177 14.4959 38.4816C14.3605 38.6266 14.163 38.7018 13.964 38.7018ZM160.207 36.6249C160.02 36.6249 159.834 36.5587 159.699 36.4284C159.445 36.1839 159.467 35.8065 159.748 35.5853C160.087 35.318 160.427 35.0501 160.769 34.7816C161.051 34.561 161.484 34.5806 161.737 34.8255C161.99 35.0704 161.968 35.4478 161.687 35.6685C161.345 35.9365 161.005 36.2039 160.667 36.4706C160.536 36.574 160.371 36.6249 160.207 36.6249ZM17.1534 35.559C16.9829 35.559 16.8122 35.5039 16.6793 35.393C16.4062 35.1649 16.397 34.787 16.6589 34.549C16.978 34.259 17.3063 33.9674 17.6346 33.6824C17.9027 33.4497 18.3365 33.4503 18.6036 33.6838C18.8706 33.9173 18.87 34.2953 18.6019 34.528C18.2809 34.8067 17.96 35.0917 17.6481 35.3752C17.5136 35.4974 17.3336 35.559 17.1534 35.559ZM163.789 33.8229C163.6 33.8229 163.412 33.7555 163.277 33.6233C163.025 33.3772 163.05 32.9998 163.333 32.7805C163.674 32.5153 164.017 32.2495 164.361 31.9832C164.644 31.7643 165.077 31.7868 165.328 32.0333C165.58 32.2798 165.554 32.6571 165.271 32.8759C164.927 33.1417 164.585 33.4069 164.244 33.6716C164.114 33.773 163.951 33.8229 163.789 33.8229ZM20.622 32.6468C20.4333 32.6468 20.2456 32.5794 20.1103 32.4471C19.8585 32.201 19.8833 31.8237 20.1658 31.6043C20.5101 31.337 20.8635 31.0685 21.2163 30.8064C21.5042 30.5924 21.9366 30.6223 22.1822 30.8732C22.4278 31.1241 22.3934 31.5008 22.1055 31.7147C21.7603 31.9712 21.4145 32.2339 21.0777 32.4955C20.947 32.5969 20.7842 32.6468 20.622 32.6468ZM167.393 31.0436C167.203 31.0436 167.014 30.9749 166.878 30.8407C166.629 30.593 166.657 30.2159 166.941 29.9983C167.285 29.7352 167.63 29.4716 167.976 29.2075C168.261 28.9905 168.694 29.0156 168.943 29.2637C169.192 29.5119 169.163 29.8889 168.879 30.106C168.533 30.3696 168.188 30.6326 167.845 30.8951C167.715 30.9946 167.554 31.0436 167.393 31.0436ZM24.3382 29.9744C24.1321 29.9744 23.9283 29.8937 23.7934 29.7399C23.5636 29.478 23.621 29.1034 23.9217 28.9032C24.2879 28.6594 24.6634 28.4147 25.0379 28.176C25.3434 27.9814 25.7721 28.0393 25.9954 28.3054C26.2188 28.5714 26.1524 28.9449 25.847 29.1395C25.4802 29.3733 25.1125 29.6129 24.7539 29.8517C24.6296 29.9344 24.4833 29.9744 24.3382 29.9744ZM171.022 28.2871C170.83 28.2871 170.639 28.2172 170.503 28.0807C170.256 27.8315 170.287 27.4545 170.573 27.2388L170.844 27.035C171.101 26.841 171.359 26.6475 171.615 26.4548C171.902 26.2396 172.334 26.2674 172.582 26.5171C172.829 26.7668 172.797 27.1437 172.51 27.359C172.254 27.5514 171.997 27.7444 171.74 27.9383L171.47 28.1416C171.34 28.2392 171.181 28.2871 171.022 28.2871ZM28.2719 27.5479C28.0487 27.5479 27.8298 27.453 27.6982 27.2782C27.4908 27.0025 27.5792 26.6324 27.8957 26.4518C28.2813 26.2316 28.6761 26.0111 29.0691 25.7964C29.3897 25.6213 29.8125 25.7057 30.0135 25.9851C30.2145 26.2644 30.1175 26.6328 29.7969 26.8079C29.4117 27.0182 29.0248 27.2344 28.6468 27.4502C28.531 27.5163 28.4008 27.5479 28.2719 27.5479ZM174.674 25.5537C174.48 25.5537 174.288 25.4826 174.152 25.3442C173.907 25.0933 173.941 24.7166 174.229 24.5026C174.58 24.2419 174.929 23.9828 175.278 23.7251C175.566 23.5118 175.998 23.5425 176.243 23.7938C176.488 24.0451 176.453 24.4218 176.165 24.6351C175.817 24.8922 175.468 25.1508 175.118 25.4109C174.989 25.5068 174.831 25.5537 174.674 25.5537ZM32.3912 25.3717C32.1513 25.3717 31.9184 25.2617 31.7928 25.0664C31.6079 24.7788 31.7257 24.415 32.0558 24.2539C32.4567 24.0584 32.8666 23.8629 33.274 23.6731C33.6077 23.5175 34.0229 23.6272 34.2013 23.9179C34.3798 24.2086 34.254 24.5703 33.9203 24.7258C33.5205 24.9121 33.1185 25.1037 32.7254 25.2955C32.6195 25.3471 32.5046 25.3717 32.3912 25.3717ZM36.6674 23.4473C36.4111 23.4473 36.1654 23.3214 36.0481 23.1064C35.8857 22.8086 36.0311 22.4526 36.3729 22.3111C36.7875 22.1395 37.2113 21.9683 37.6323 21.8023C37.9772 21.6666 38.3831 21.7999 38.5389 22.1001C38.695 22.4005 38.5419 22.7542 38.1971 22.89C37.7838 23.0529 37.3679 23.2209 36.961 23.3894C36.866 23.4286 36.7659 23.4473 36.6674 23.4473ZM178.348 22.8436C178.153 22.8436 177.959 22.7712 177.824 22.6307C177.58 22.3783 177.618 22.0018 177.907 21.7897C178.261 21.5312 178.612 21.2742 178.962 21.019C179.253 20.8075 179.685 20.8408 179.928 21.0936C180.171 21.3464 180.132 21.7229 179.842 21.9345C179.492 22.1892 179.141 22.4457 178.789 22.7038C178.66 22.7977 178.504 22.8436 178.348 22.8436ZM41.0795 21.7718C40.8071 21.7718 40.5497 21.6294 40.4428 21.3956C40.3028 21.0893 40.4743 20.7422 40.8258 20.6202C41.2523 20.4723 41.6877 20.3253 42.1199 20.1832C42.474 20.0667 42.8693 20.2225 43.0028 20.5309C43.1364 20.8394 42.9577 21.1838 42.6036 21.3002C42.1791 21.4397 41.7515 21.5841 41.3328 21.7294C41.2496 21.7582 41.1638 21.7718 41.0795 21.7718ZM45.6049 20.3439C45.3166 20.3439 45.0484 20.1841 44.9539 19.9325C44.8362 19.6192 45.0324 19.2821 45.392 19.1796C45.8302 19.0546 46.2752 18.9315 46.7143 18.8137C47.0762 18.7167 47.4594 18.8933 47.5708 19.2084C47.6822 19.5234 47.4794 19.8575 47.1178 19.9545C46.6862 20.0703 46.2489 20.1914 45.8182 20.3141C45.7474 20.3343 45.6755 20.3439 45.6049 20.3439ZM182.046 20.1568C181.849 20.1568 181.653 20.0831 181.518 19.9405C181.276 19.6867 181.317 19.3104 181.608 19.1001C181.964 18.8436 182.318 18.5889 182.67 18.336C182.962 18.1262 183.394 18.1625 183.634 18.4168C183.875 18.6711 183.834 19.0473 183.542 19.257C183.19 19.5094 182.837 19.7636 182.482 20.0196C182.355 20.1119 182.2 20.1568 182.046 20.1568ZM50.2227 19.1615C49.9186 19.1615 49.6408 18.9837 49.5603 18.7154C49.4647 18.3964 49.6839 18.0703 50.0499 17.9869C50.4945 17.8857 50.947 17.7862 51.3949 17.6913C51.7628 17.6135 52.1331 17.8098 52.2226 18.1302C52.312 18.4505 52.0865 18.7733 51.7188 18.8512C51.2785 18.9446 50.8336 19.0423 50.3965 19.1419C50.3384 19.1551 50.2801 19.1615 50.2227 19.1615ZM54.9134 18.2217C54.5933 18.2217 54.3071 18.0252 54.2423 17.7413C54.1683 17.418 54.4093 17.1037 54.7804 17.0393C55.232 16.961 55.6903 16.8848 56.1427 16.8132C56.5154 16.7541 56.8717 16.9692 56.9394 17.2935C57.0072 17.6179 56.7603 17.9286 56.388 17.9877C55.9431 18.0582 55.4923 18.133 55.0481 18.2101C55.0028 18.2179 54.9578 18.2217 54.9134 18.2217ZM59.6593 17.5218C59.323 17.5218 59.0296 17.306 58.9816 17.0075C58.9292 16.681 59.1905 16.3793 59.5653 16.3337C60.0206 16.2782 60.4831 16.2252 60.94 16.176C61.3159 16.1356 61.6575 16.3682 61.7039 16.6953C61.7502 17.0225 61.4834 17.3205 61.1078 17.3609C60.6583 17.4092 60.2032 17.4614 59.7551 17.516C59.7229 17.5198 59.6909 17.5218 59.6593 17.5218ZM185.765 17.4934C185.567 17.4934 185.369 17.4185 185.234 17.2738C184.995 17.0184 185.039 16.6424 185.332 16.434C185.69 16.1796 186.046 15.9271 186.4 15.6766C186.693 15.4688 187.125 15.5076 187.363 15.7635C187.602 16.0193 187.557 16.3952 187.264 16.6031C186.911 16.8531 186.555 17.105 186.198 17.359C186.071 17.4494 185.918 17.4934 185.765 17.4934ZM189.507 14.8537C189.306 14.8537 189.108 14.7774 188.972 14.6307C188.735 14.3738 188.782 13.9981 189.077 13.7915C189.438 13.5391 189.796 13.2888 190.151 13.0409C190.447 12.8348 190.878 12.8765 191.114 13.1338C191.351 13.3911 191.303 13.7668 191.008 13.9728C190.653 14.2203 190.295 14.47 189.936 14.722C189.809 14.8106 189.657 14.8537 189.507 14.8537ZM193.271 12.2377C193.068 12.2377 192.868 12.1601 192.733 12.0114C192.498 11.7529 192.548 11.3775 192.845 11.1729C193.208 10.9223 193.568 10.6744 193.925 10.4291C194.222 10.2249 194.653 10.2694 194.887 10.5282C195.122 10.7871 195.071 11.1624 194.774 11.3665C194.417 11.6113 194.058 11.8587 193.696 12.1088C193.57 12.1956 193.419 12.2377 193.271 12.2377ZM197.056 9.64578C196.852 9.64578 196.651 9.56687 196.515 9.41598C196.283 9.15603 196.336 8.78094 196.634 8.57823C197 8.3295 197.363 8.08388 197.721 7.84136C198.02 7.63931 198.45 7.68629 198.682 7.94671C198.914 8.20708 198.86 8.58211 198.561 8.78428C198.204 9.02626 197.842 9.27141 197.477 9.51954C197.352 9.6046 197.203 9.64578 197.056 9.64578ZM200.864 7.07828C200.658 7.07828 200.455 6.998 200.32 6.84496C200.089 6.58358 200.146 6.20878 200.446 6.00798C200.815 5.76098 201.179 5.51775 201.539 5.27822C201.839 5.07802 202.269 5.12786 202.499 5.38972C202.729 5.65158 202.672 6.02619 202.371 6.22645C202.012 6.46551 201.649 6.70827 201.28 6.95478C201.156 7.03799 201.009 7.07828 200.864 7.07828ZM204.693 4.53555C204.486 4.53555 204.281 4.4539 204.146 4.2987C203.918 4.03577 203.977 3.66146 204.279 3.46257C204.652 3.21683 205.019 2.97592 205.378 2.73985C205.681 2.54162 206.11 2.59438 206.338 2.85773C206.566 3.12108 206.505 3.49534 206.203 3.69357C205.844 3.92911 205.478 4.16953 205.106 4.41468C204.982 4.49616 204.837 4.53555 204.693 4.53555Z" fill="#848AD9"/>
<path d="M208.61 1.9752C208.4 1.9752 208.194 1.89206 208.059 1.73466C207.833 1.47023 207.896 1.09627 208.2 0.899416C208.386 0.778962 208.569 0.660117 208.75 0.542945C209.054 0.346447 209.483 0.401602 209.709 0.666267C209.934 0.930932 209.871 1.30483 209.567 1.50133C209.387 1.61826 209.203 1.7368 209.018 1.85702C208.895 1.93676 208.752 1.9752 208.61 1.9752Z" fill="#848AD9"/>
</svg>
