<svg width="130" height="243" viewBox="0 0 130 243" fill="none" xmlns="http://www.w3.org/2000/svg">
<path d="M127.556 17.1908V225.8C127.556 233.98 120.845 240.61 112.566 240.61H17.3987C9.11909 240.61 2.4082 233.98 2.4082 225.8V17.1908C2.4082 9.01126 9.11909 2.38055 17.3987 2.38055H112.566C120.845 2.38055 127.556 9.01126 127.556 17.1908Z" fill="#F0F3FF"/>
<path d="M112.167 160.742H17.8076C15.4232 160.742 13.4902 158.807 13.4902 156.421C13.4902 154.034 15.4232 152.099 17.8076 152.099H112.167C114.552 152.099 116.485 154.034 116.485 156.421C116.485 158.807 114.552 160.742 112.167 160.742Z" fill="#BBC8F9"/>
<path d="M103.668 178.75H26.3037C23.9193 178.75 21.9863 176.815 21.9863 174.428C21.9863 172.041 23.9193 170.107 26.3037 170.107H103.668C106.052 170.107 107.985 172.041 107.985 174.428C107.985 176.815 106.052 178.75 103.668 178.75Z" fill="#BBC8F9"/>
<path d="M112.167 196.757H17.8076C15.4232 196.757 13.4902 194.822 13.4902 192.436C13.4902 190.049 15.4232 188.114 17.8076 188.114H112.167C114.552 188.114 116.485 190.049 116.485 192.436C116.485 194.822 114.552 196.757 112.167 196.757Z" fill="#BBC8F9"/>
<path d="M112.167 214.765H17.8076C15.4232 214.765 13.4902 212.83 13.4902 210.443C13.4902 208.056 15.4232 206.122 17.8076 206.122H112.167C114.552 206.122 116.485 208.056 116.485 210.443C116.485 212.83 114.552 214.765 112.167 214.765Z" fill="#BBC8F9"/>
<path d="M2.40991 197.266V197.997C3.89432 199.762 3.51224 202.179 3.51224 202.179C3.5336 202.298 3.559 202.448 3.58846 202.631C3.86892 204.321 4.53844 208.675 4.81982 213.896V189.478C4.19815 192.086 3.4097 194.729 2.40991 197.266ZM112.568 0H17.4011C7.80594 0 0 7.71169 0 17.1899V225.8C0 228.948 0.860531 231.9 2.36224 234.44C3.93804 237.107 6.219 239.319 8.94997 240.824C11.4544 242.204 14.3358 242.991 17.4011 242.991H112.568C113.852 242.991 115.104 242.853 116.31 242.59C123.854 240.952 129.578 234.463 129.95 226.614C129.963 226.344 129.969 226.073 129.969 225.8V17.1899C129.969 7.71178 122.163 0 112.568 0ZM125.149 225.8C125.149 232.665 119.517 238.229 112.568 238.229H17.4011C11.6322 238.229 6.7696 234.394 5.28631 229.162C4.98256 228.093 4.81991 226.966 4.81991 225.8V17.1899C4.81991 10.3264 10.4526 4.76151 17.4011 4.76151H24.4044C27.5876 4.76151 30.4639 6.55745 31.9117 9.35819C33.6064 12.6349 37.0567 14.8793 41.0385 14.8793H88.9308C91.7593 14.8793 94.3197 13.7474 96.1729 11.9159C96.9288 11.1694 97.5659 10.3071 98.0566 9.35819C99.5043 6.55745 102.382 4.76151 105.564 4.76151H112.568C119.517 4.76151 125.149 10.3264 125.149 17.1899L125.149 225.8Z" fill="#274198"/>
<path d="M114.655 68.8005C114.58 68.8717 114.504 68.9407 114.425 69.0072C113.544 69.7505 112.41 70.1978 111.173 70.1978H18.8396C17.6075 70.1978 16.4778 69.7541 15.5988 69.0165C15.5162 68.9471 15.4354 68.8748 15.3574 68.8004L51.8814 36.7365L57.4858 31.8164L62.6172 27.3117C63.9872 26.1089 66.0251 26.1089 67.3952 27.3118L72.5369 31.8257L78.1309 36.7365L114.655 68.8005Z" fill="#0009A0"/>
<path d="M116.237 72.4798V129.152C116.237 130.207 115.921 131.188 115.38 132.003C115.168 132.322 114.921 132.617 114.645 132.879C114.57 132.951 114.494 133.02 114.415 133.086C113.534 133.83 112.401 134.277 111.163 134.277H18.8297C17.5975 134.277 16.4679 133.833 15.5889 133.096C15.5064 133.026 15.4255 132.954 15.3476 132.879C15.072 132.617 14.8253 132.323 14.6132 132.003C14.1592 131.32 13.8641 130.52 13.7804 129.658C13.764 129.491 13.7559 129.322 13.7559 129.152V72.4797C13.7559 72.3089 13.764 72.1402 13.7804 71.9737C13.9032 70.7083 14.4814 69.578 15.3476 68.752C15.4255 68.6776 15.5064 68.6052 15.5889 68.5359C16.4679 67.7983 17.5975 67.3546 18.8297 67.3546H111.163C112.401 67.3546 113.534 67.8019 114.415 68.5452C114.494 68.6117 114.57 68.6808 114.645 68.7519C115.625 69.6868 116.237 71.0112 116.237 72.4798Z" fill="#274198"/>
<path d="M99.0466 109.491H30.9586C28.9934 109.491 27.4004 107.896 27.4004 105.929V63.6947C27.4004 61.7277 28.9934 60.1331 30.9586 60.1331H99.0466C101.012 60.1331 102.605 61.7277 102.605 63.6947V105.929C102.605 107.896 101.012 109.491 99.0466 109.491Z" fill="white"/>
<path d="M74.4571 67.983H34.1166C33.3565 67.983 32.7402 67.3662 32.7402 66.6053V66.5928C32.7402 65.832 33.3565 65.2151 34.1166 65.2151H74.4571C75.2172 65.2151 75.8334 65.832 75.8334 66.5928V66.6053C75.8334 67.3662 75.2173 67.983 74.4571 67.983Z" fill="#274198"/>
<path d="M92.4994 73.3497H33.7061C33.1727 73.3497 32.7402 72.9169 32.7402 72.383V72.3742C32.7402 71.8403 33.1727 71.4075 33.7061 71.4075H92.4994C93.0328 71.4075 93.4653 71.8403 93.4653 72.3742V72.383C93.4653 72.9169 93.0328 73.3497 92.4994 73.3497Z" fill="#274198"/>
<path d="M92.4994 77.567H33.7061C33.1727 77.567 32.7402 77.1341 32.7402 76.6002V76.5914C32.7402 76.0575 33.1727 75.6247 33.7061 75.6247H92.4994C93.0328 75.6247 93.4653 76.0575 93.4653 76.5914V76.6002C93.4653 77.1341 93.0328 77.567 92.4994 77.567Z" fill="#274198"/>
<path d="M83.7367 82.2025H33.7061C33.1727 82.2025 32.7402 81.7697 32.7402 81.2358V81.2269C32.7402 80.693 33.1727 80.2602 33.7061 80.2602H83.7366C84.27 80.2602 84.7024 80.693 84.7024 81.2269V81.2358C84.7025 81.7697 84.2701 82.2025 83.7367 82.2025Z" fill="#274198"/>
<path d="M65.0133 100.815L57.4805 105.736L15.5936 133.095C15.511 133.026 15.4304 132.954 15.3526 132.879C15.0767 132.617 14.8301 132.323 14.6182 132.004C14.1639 131.32 13.8689 130.52 13.7852 129.658V71.9739C13.9081 70.7087 14.4864 69.5782 15.3526 68.7525C15.4304 68.6779 15.5111 68.6058 15.5936 68.5364L56.4882 95.2475L57.4809 95.8958L65.0133 100.815Z" fill="#274198"/>
<path d="M116.244 72.4797V129.152C116.244 130.207 115.928 131.188 115.387 132.003C115.175 132.322 114.928 132.616 114.652 132.879C114.578 132.951 114.501 133.02 114.422 133.086L72.5347 105.726L65.0156 100.815L72.5344 95.9049L73.5271 95.2565L114.422 68.5454C114.501 68.6119 114.578 68.6808 114.652 68.7522C115.633 69.6868 116.244 71.0113 116.244 72.4797Z" fill="#274198"/>
<path d="M57.482 95.8957L65.0143 100.815L57.4815 105.736L15.5946 133.095C15.512 133.026 15.4313 132.954 15.3536 132.879C15.0777 132.617 14.8311 132.323 14.6191 132.004L51.0122 100.056L56.4893 95.2475L57.482 95.8957Z" fill="#A7B8F6" fill-opacity="0.65"/>
<path d="M115.387 132.003C115.175 132.323 114.928 132.616 114.652 132.879C114.578 132.951 114.501 133.02 114.422 133.086L72.5347 105.726L65.0156 100.815L72.5344 95.9049L73.5271 95.2566L78.9942 100.056L115.387 132.003Z" fill="#A7B8F6" fill-opacity="0.65"/>
<path d="M114.647 132.877C113.57 134.17 111.669 134.271 109.997 134.272C80.2875 134.277 50.5782 134.282 20.869 134.286C18.9228 134.287 16.7781 134.213 15.3438 132.884C19.8055 128.968 24.2672 125.051 28.729 121.135C33.1907 117.218 37.6525 113.302 42.1142 109.385C46.576 105.469 51.0377 101.552 55.4994 97.6358C57.8386 95.5824 60.1775 93.5287 62.5165 91.475C63.9412 90.2242 66.0603 90.2242 67.4852 91.4749L114.648 132.875C114.648 132.876 114.647 132.876 114.647 132.877Z" fill="#274198"/>
</svg>
