<svg width="210" height="243" viewBox="0 0 210 243" fill="none" xmlns="http://www.w3.org/2000/svg">
<path d="M167.556 17.1908V225.8C167.556 233.98 160.845 240.61 152.566 240.61H57.3987C49.1191 240.61 42.4082 233.98 42.4082 225.8V17.1908C42.4082 9.01126 49.1191 2.38055 57.3987 2.38055H152.566C160.845 2.38055 167.556 9.01126 167.556 17.1908Z" fill="#F0F3FF"/>
<path d="M152.167 160.742H57.8076C55.4232 160.742 53.4902 158.807 53.4902 156.421C53.4902 154.034 55.4232 152.099 57.8076 152.099H152.167C154.552 152.099 156.485 154.034 156.485 156.421C156.485 158.807 154.552 160.742 152.167 160.742Z" fill="#BBC8F9"/>
<path d="M143.668 178.75H66.3037C63.9193 178.75 61.9863 176.815 61.9863 174.428C61.9863 172.041 63.9193 170.107 66.3037 170.107H143.668C146.052 170.107 147.985 172.041 147.985 174.428C147.985 176.815 146.052 178.75 143.668 178.75Z" fill="#BBC8F9"/>
<path d="M152.167 196.757H57.8076C55.4232 196.757 53.4902 194.822 53.4902 192.436C53.4902 190.049 55.4232 188.114 57.8076 188.114H152.167C154.552 188.114 156.485 190.049 156.485 192.436C156.485 194.822 154.552 196.757 152.167 196.757Z" fill="#BBC8F9"/>
<path d="M152.167 214.765H57.8076C55.4232 214.765 53.4902 212.83 53.4902 210.443C53.4902 208.056 55.4232 206.122 57.8076 206.122H152.167C154.552 206.122 156.485 208.056 156.485 210.443C156.485 212.83 154.552 214.765 152.167 214.765Z" fill="#BBC8F9"/>
<path d="M42.4099 197.266V197.997C43.8943 199.762 43.5122 202.179 43.5122 202.179C43.5336 202.298 43.559 202.448 43.5885 202.631C43.8689 204.321 44.5384 208.675 44.8198 213.896V189.478C44.1982 192.086 43.4097 194.729 42.4099 197.266ZM152.568 0H57.4011C47.8059 0 40 7.71169 40 17.1899V225.8C40 228.948 40.8605 231.9 42.3622 234.44C43.938 237.107 46.219 239.319 48.95 240.824C51.4544 242.204 54.3358 242.991 57.4011 242.991H152.568C153.852 242.991 155.104 242.853 156.31 242.59C163.854 240.952 169.578 234.463 169.95 226.614C169.963 226.344 169.969 226.073 169.969 225.8V17.1899C169.969 7.71178 162.163 0 152.568 0ZM165.149 225.8C165.149 232.665 159.517 238.229 152.568 238.229H57.4011C51.6322 238.229 46.7696 234.394 45.2863 229.162C44.9826 228.093 44.8199 226.966 44.8199 225.8V17.1899C44.8199 10.3264 50.4526 4.76151 57.4011 4.76151H64.4044C67.5876 4.76151 70.4639 6.55745 71.9117 9.35819C73.6064 12.6349 77.0567 14.8793 81.0385 14.8793H128.931C131.759 14.8793 134.32 13.7474 136.173 11.9159C136.929 11.1694 137.566 10.3071 138.057 9.35819C139.504 6.55745 142.382 4.76151 145.564 4.76151H152.568C159.517 4.76151 165.149 10.3264 165.149 17.1899L165.149 225.8Z" fill="#274198"/>
<path d="M154.655 68.8005C154.58 68.8717 154.504 68.9407 154.425 69.0072C153.544 69.7505 152.41 70.1978 151.173 70.1978H58.8396C57.6075 70.1978 56.4778 69.7541 55.5988 69.0165C55.5162 68.9471 55.4354 68.8748 55.3574 68.8004L91.8814 36.7365L97.4858 31.8164L102.617 27.3117C103.987 26.1089 106.025 26.1089 107.395 27.3118L112.537 31.8257L118.131 36.7365L154.655 68.8005Z" fill="#0009A0"/>
<path d="M156.237 72.4798V129.152C156.237 130.207 155.921 131.188 155.38 132.003C155.168 132.322 154.921 132.617 154.645 132.879C154.57 132.951 154.494 133.02 154.415 133.086C153.534 133.83 152.401 134.277 151.163 134.277H58.8297C57.5975 134.277 56.4679 133.833 55.5889 133.096C55.5064 133.026 55.4255 132.954 55.3476 132.879C55.072 132.617 54.8253 132.323 54.6132 132.003C54.1592 131.32 53.8641 130.52 53.7804 129.658C53.764 129.491 53.7559 129.322 53.7559 129.152V72.4797C53.7559 72.3089 53.764 72.1402 53.7804 71.9737C53.9032 70.7083 54.4814 69.578 55.3476 68.752C55.4255 68.6776 55.5064 68.6052 55.5889 68.5359C56.4679 67.7983 57.5975 67.3546 58.8297 67.3546H151.163C152.401 67.3546 153.534 67.8019 154.415 68.5452C154.494 68.6117 154.57 68.6808 154.645 68.7519C155.625 69.6868 156.237 71.0112 156.237 72.4798Z" fill="#274198"/>
<path d="M139.047 109.491H70.9586C68.9934 109.491 67.4004 107.896 67.4004 105.929V63.6947C67.4004 61.7277 68.9934 60.1331 70.9586 60.1331H139.047C141.012 60.1331 142.605 61.7277 142.605 63.6947V105.929C142.605 107.896 141.012 109.491 139.047 109.491Z" fill="white"/>
<path d="M114.457 67.983H74.1166C73.3565 67.983 72.7402 67.3662 72.7402 66.6053V66.5928C72.7402 65.832 73.3565 65.2151 74.1166 65.2151H114.457C115.217 65.2151 115.833 65.832 115.833 66.5928V66.6053C115.833 67.3662 115.217 67.983 114.457 67.983Z" fill="#274198"/>
<path d="M132.499 73.3497H73.7061C73.1727 73.3497 72.7402 72.9169 72.7402 72.383V72.3742C72.7402 71.8403 73.1727 71.4075 73.7061 71.4075H132.499C133.033 71.4075 133.465 71.8403 133.465 72.3742V72.383C133.465 72.9169 133.033 73.3497 132.499 73.3497Z" fill="#274198"/>
<path d="M132.499 77.567H73.7061C73.1727 77.567 72.7402 77.1341 72.7402 76.6002V76.5914C72.7402 76.0575 73.1727 75.6247 73.7061 75.6247H132.499C133.033 75.6247 133.465 76.0575 133.465 76.5914V76.6002C133.465 77.1341 133.033 77.567 132.499 77.567Z" fill="#274198"/>
<path d="M123.737 82.2025H73.7061C73.1727 82.2025 72.7402 81.7697 72.7402 81.2358V81.2269C72.7402 80.693 73.1727 80.2602 73.7061 80.2602H123.737C124.27 80.2602 124.702 80.693 124.702 81.2269V81.2358C124.703 81.7697 124.27 82.2025 123.737 82.2025Z" fill="#274198"/>
<path d="M105.013 100.815L97.4805 105.736L55.5936 133.095C55.511 133.026 55.4304 132.954 55.3526 132.879C55.0767 132.617 54.8301 132.323 54.6182 132.004C54.1639 131.32 53.8689 130.52 53.7852 129.658V71.9739C53.9081 70.7087 54.4864 69.5782 55.3526 68.7525C55.4304 68.6779 55.5111 68.6058 55.5936 68.5364L96.4882 95.2475L97.4809 95.8958L105.013 100.815Z" fill="#274198"/>
<path d="M156.244 72.4797V129.152C156.244 130.207 155.928 131.188 155.387 132.003C155.175 132.322 154.928 132.616 154.652 132.879C154.578 132.951 154.501 133.02 154.422 133.086L112.535 105.726L105.016 100.815L112.534 95.9049L113.527 95.2565L154.422 68.5454C154.501 68.6119 154.578 68.6808 154.652 68.7522C155.633 69.6868 156.244 71.0113 156.244 72.4797Z" fill="#274198"/>
<path d="M97.482 95.8957L105.014 100.815L97.4815 105.736L55.5946 133.095C55.512 133.026 55.4313 132.954 55.3536 132.879C55.0777 132.617 54.8311 132.323 54.6191 132.004L91.0122 100.056L96.4893 95.2475L97.482 95.8957Z" fill="#A7B8F6" fill-opacity="0.65"/>
<path d="M155.387 132.003C155.175 132.323 154.928 132.616 154.652 132.879C154.578 132.951 154.501 133.02 154.422 133.086L112.535 105.726L105.016 100.815L112.534 95.9049L113.527 95.2566L118.994 100.056L155.387 132.003Z" fill="#A7B8F6" fill-opacity="0.65"/>
<path d="M154.647 132.877C153.57 134.17 151.669 134.271 149.997 134.272C120.287 134.277 90.5782 134.282 60.869 134.286C58.9228 134.287 56.7781 134.213 55.3438 132.884C59.8055 128.968 64.2672 125.051 68.729 121.135C73.1907 117.218 77.6525 113.302 82.1142 109.385C86.576 105.469 91.0377 101.552 95.4994 97.6358C97.8386 95.5824 100.177 93.5287 102.517 91.475C103.941 90.2242 106.06 90.2242 107.485 91.4749L154.648 132.875C154.648 132.876 154.647 132.876 154.647 132.877Z" fill="#274198"/>
<path d="M74.7514 76.8452C74.7434 76.8452 74.7354 76.8451 74.7273 76.8448C74.5005 76.838 74.274 76.8319 74.0477 76.8267C73.6694 76.8178 73.371 76.5435 73.3811 76.214C73.3912 75.8844 73.7035 75.6239 74.0844 75.6333C74.3142 75.6387 74.5443 75.6448 74.7746 75.6517C75.1528 75.6631 75.4487 75.9394 75.4357 76.2689C75.4229 76.5913 75.1188 76.8452 74.7514 76.8452Z" fill="#848AD9"/>
<path d="M64.4403 77.0582C64.0875 77.0582 63.7879 76.8223 63.7582 76.5105C63.727 76.182 64.0074 75.8936 64.3845 75.8664C64.8428 75.8334 65.3079 75.803 65.7671 75.7763C66.1448 75.7538 66.4712 76.0031 66.4965 76.3321C66.5217 76.6609 66.2361 76.9454 65.8585 76.9675C65.4065 76.9938 64.9486 77.0236 64.4976 77.0562C64.4784 77.0575 64.4592 77.0582 64.4403 77.0582ZM69.2473 76.8278C68.8776 76.8278 68.573 76.5713 68.5627 76.2473C68.5524 75.9178 68.8506 75.6433 69.2288 75.6343C69.6877 75.6233 70.154 75.6154 70.6148 75.6106C70.9937 75.6062 71.3036 75.8707 71.3081 76.2004C71.3125 76.53 71.0095 76.8004 70.6311 76.8043C70.1774 76.809 69.7182 76.8169 69.2664 76.8277C69.26 76.8278 69.2536 76.8278 69.2473 76.8278Z" fill="#848AD9"/>
<path d="M43.67 170C43.6671 170 43.6642 170 43.6614 170C43.1969 169.995 42.7293 169.986 42.2715 169.973C41.8932 169.962 41.5966 169.686 41.609 169.357C41.6214 169.027 41.9379 168.771 42.3162 168.78C42.7648 168.792 43.223 168.801 43.6783 168.806C44.0566 168.81 44.3596 169.081 44.3549 169.41C44.3502 169.738 44.0444 170 43.67 170ZM47.108 169.964C46.741 169.964 46.4371 169.711 46.4237 169.388C46.4101 169.059 46.7056 168.782 47.0837 168.77C47.5316 168.756 47.9898 168.738 48.4454 168.717C48.8237 168.699 49.1463 168.951 49.1668 169.28C49.1874 169.609 48.8977 169.891 48.5199 169.909C48.0559 169.931 47.5893 169.949 47.1331 169.963C47.1247 169.964 47.1162 169.964 47.108 169.964ZM38.8606 169.797C38.8408 169.797 38.821 169.796 38.8009 169.794C38.338 169.76 37.872 169.72 37.416 169.677C37.0399 169.641 36.7681 169.347 36.809 169.019C36.8499 168.691 37.188 168.455 37.5642 168.49C38.0101 168.532 38.4658 168.571 38.9187 168.605C39.2956 168.633 39.575 168.923 39.5424 169.251C39.5116 169.562 39.2123 169.797 38.8606 169.797ZM51.9111 169.683C51.5615 169.683 51.2631 169.451 51.2298 169.141C51.1944 168.813 51.4711 168.522 51.8479 168.491L52.2138 168.461C52.5427 168.434 52.8763 168.404 53.2051 168.373C53.5814 168.337 53.9196 168.573 53.9608 168.901C54.002 169.229 53.7305 169.524 53.3544 169.559C53.0191 169.591 52.679 169.622 52.3435 169.65L51.976 169.68C51.9543 169.682 51.9325 169.683 51.9111 169.683ZM34.084 169.269C34.0459 169.269 34.0073 169.266 33.9685 169.26C33.5102 169.192 33.049 169.119 32.5978 169.042C32.2266 168.978 31.9846 168.665 32.0574 168.341C32.1302 168.018 32.4902 167.807 32.8616 167.87C33.3014 167.946 33.751 168.017 34.1979 168.083C34.571 168.138 34.8221 168.447 34.7587 168.772C34.7019 169.063 34.4121 169.269 34.084 169.269ZM56.6793 169.162C56.3491 169.162 56.0583 168.953 56.0038 168.66C55.9434 168.335 56.1971 168.028 56.5707 167.976C57.0167 167.913 57.4673 167.845 57.9102 167.774C58.2827 167.714 58.6396 167.929 58.708 168.253C58.7764 168.577 58.5302 168.888 58.158 168.948C57.7055 169.02 57.2452 169.09 56.7897 169.154C56.7525 169.159 56.7156 169.162 56.6793 169.162ZM29.3794 168.379C29.3207 168.379 29.2611 168.372 29.2017 168.358C28.7512 168.253 28.2995 168.141 27.859 168.027C27.4965 167.932 27.2904 167.6 27.3989 167.284C27.5073 166.968 27.889 166.789 28.2516 166.883C28.6794 166.994 29.1183 167.103 29.5562 167.205C29.9217 167.29 30.1386 167.617 30.0408 167.936C29.9588 168.203 29.682 168.379 29.3794 168.379ZM61.3898 168.338C61.0805 168.338 60.7999 168.154 60.7243 167.881C60.6356 167.56 60.8619 167.238 61.2298 167.16C61.6699 167.068 62.1131 166.97 62.5469 166.87C62.9127 166.786 63.2877 166.976 63.3847 167.294C63.4816 167.613 63.2636 167.94 62.8979 168.024C62.4542 168.127 62.001 168.227 61.5509 168.321C61.4969 168.332 61.4429 168.338 61.3898 168.338ZM66.0129 167.198C65.7243 167.198 65.4559 167.038 65.3615 166.786C65.2443 166.473 65.4409 166.136 65.8007 166.034C66.2296 165.912 66.6631 165.784 67.0891 165.654C67.4462 165.545 67.8372 165.708 67.9625 166.019C68.0878 166.331 67.9 166.671 67.5429 166.78C67.1073 166.913 66.664 167.044 66.2254 167.169C66.1548 167.189 66.0832 167.198 66.0129 167.198ZM24.8011 167.084C24.7192 167.084 24.6358 167.072 24.5547 167.044C24.1194 166.898 23.6833 166.744 23.2586 166.587C22.9103 166.459 22.7477 166.108 22.8954 165.805C23.0432 165.501 23.4455 165.36 23.7937 165.488C24.2046 165.64 24.6265 165.789 25.0479 165.931C25.4008 166.049 25.5767 166.395 25.4406 166.702C25.3356 166.939 25.0762 167.084 24.8011 167.084ZM70.5196 165.747C70.2507 165.747 69.9956 165.608 69.8863 165.378C69.7415 165.074 69.9075 164.725 70.2571 164.599C70.6737 164.448 71.0943 164.292 71.5072 164.133C71.8533 164.001 72.2578 164.138 72.4102 164.44C72.5626 164.741 72.4053 165.093 72.0589 165.226C71.637 165.388 71.2072 165.548 70.7815 165.701C70.6957 165.732 70.6069 165.747 70.5196 165.747ZM20.4216 165.348C20.3132 165.348 20.2033 165.325 20.1008 165.278C19.6894 165.088 19.2773 164.888 18.8762 164.686C18.5488 164.521 18.4372 164.155 18.6269 163.87C18.8167 163.585 19.2359 163.488 19.5633 163.653C19.95 163.848 20.347 164.04 20.7437 164.224C21.0779 164.378 21.2049 164.74 21.0274 165.031C20.9042 165.233 20.6669 165.348 20.4216 165.348ZM74.8879 164.002C74.6372 164.002 74.3956 163.882 74.2753 163.673C74.1052 163.379 74.2413 163.02 74.5793 162.872C74.9811 162.696 75.388 162.513 75.7886 162.328C76.1231 162.174 76.5377 162.286 76.7145 162.577C76.8913 162.869 76.7633 163.23 76.4288 163.384C76.0201 163.572 75.6051 163.758 75.1952 163.938C75.0965 163.981 74.9914 164.002 74.8879 164.002ZM16.3306 163.144C16.1926 163.144 16.0533 163.108 15.9325 163.032C15.5535 162.796 15.1753 162.551 14.8084 162.302C14.5096 162.1 14.4557 161.725 14.6878 161.465C14.9199 161.204 15.3504 161.157 15.6492 161.36C16.0018 161.598 16.3654 161.834 16.7297 162.062C17.0375 162.253 17.1085 162.626 16.8884 162.894C16.7546 163.057 16.5441 163.144 16.3306 163.144ZM79.1061 161.994C78.8714 161.994 78.6429 161.889 78.5151 161.7C78.323 161.416 78.4315 161.051 78.7575 160.883C79.1452 160.684 79.5381 160.478 79.9252 160.272C80.2478 160.099 80.6696 160.187 80.8674 160.468C81.0652 160.749 80.9641 161.117 80.6414 161.289C80.2475 161.5 79.8477 161.709 79.4532 161.912C79.3441 161.968 79.2243 161.994 79.1061 161.994ZM12.6248 160.474C12.4549 160.474 12.2847 160.42 12.1521 160.309C12.0515 160.226 11.9512 160.142 11.8514 160.057C11.6173 159.857 11.3835 159.653 11.1564 159.448C10.8935 159.211 10.9008 158.833 11.1729 158.604C11.4449 158.375 11.8787 158.381 12.1417 158.618C12.3597 158.815 12.5842 159.011 12.809 159.203C12.9049 159.284 13.0011 159.365 13.0977 159.445C13.3715 159.673 13.3819 160.051 13.1207 160.289C12.9861 160.412 12.8056 160.474 12.6248 160.474ZM83.1739 159.762C82.953 159.762 82.7363 159.669 82.6041 159.497C82.3934 159.223 82.4775 158.852 82.7919 158.669C83.1636 158.452 83.5431 158.227 83.9198 158C84.231 157.812 84.6577 157.88 84.873 158.151C85.0882 158.422 85.0105 158.794 84.6993 158.982C84.3171 159.212 83.932 159.44 83.5547 159.661C83.4375 159.729 83.305 159.762 83.1739 159.762ZM9.3888 157.375C9.1862 157.375 8.98552 157.297 8.85034 157.148C8.56264 156.83 8.27816 156.503 8.00499 156.175C7.78259 155.908 7.85056 155.535 8.15669 155.341C8.46282 155.148 8.89138 155.207 9.11371 155.473C9.3764 155.788 9.64984 156.103 9.92644 156.409C10.1608 156.668 10.1098 157.043 9.81263 157.247C9.68684 157.334 9.53727 157.375 9.3888 157.375ZM87.1003 157.343C86.8909 157.343 86.6842 157.26 86.5497 157.102C86.324 156.837 86.3874 156.464 86.6911 156.267C87.0521 156.033 87.4193 155.792 87.7827 155.551C88.0836 155.351 88.5135 155.402 88.743 155.664C88.9724 155.926 88.9145 156.301 88.6135 156.5C88.2458 156.745 87.874 156.989 87.5084 157.225C87.3856 157.305 87.2423 157.343 87.1003 157.343ZM90.9004 154.774C90.7005 154.774 90.5022 154.699 90.3669 154.552C90.1292 154.296 90.1751 153.92 90.4696 153.713C90.82 153.467 91.1767 153.213 91.5298 152.96C91.8219 152.75 92.2537 152.786 92.4943 153.041C92.735 153.295 92.6932 153.671 92.4011 153.881C92.0446 154.137 91.6843 154.393 91.3304 154.642C91.2036 154.731 91.0515 154.774 90.9004 154.774ZM6.67717 153.918C6.4425 153.918 6.21394 153.812 6.08622 153.623C5.85108 153.276 5.61943 152.918 5.39792 152.561C5.21793 152.271 5.34194 151.909 5.67485 151.752C6.00784 151.595 6.42352 151.704 6.60337 151.993C6.81701 152.338 7.0403 152.682 7.26695 153.018C7.45899 153.302 7.3504 153.667 7.02433 153.835C6.91505 153.891 6.79536 153.918 6.67717 153.918ZM94.5928 152.088C94.4003 152.088 94.209 152.018 94.0735 151.881C93.8265 151.631 93.8586 151.254 94.1453 151.039C94.4848 150.784 94.8328 150.521 95.1794 150.257C95.4641 150.039 95.897 150.064 96.1462 150.312C96.3954 150.561 96.3667 150.938 96.0819 151.155C95.7326 151.421 95.382 151.686 95.0398 151.943C94.9103 152.041 94.7512 152.088 94.5928 152.088ZM4.50256 150.179C4.23733 150.179 3.98485 150.044 3.87311 149.819C3.68996 149.449 3.51073 149.07 3.34053 148.692C3.20227 148.385 3.37582 148.039 3.72806 147.918C4.08036 147.798 4.47796 147.949 4.61615 148.256C4.7808 148.621 4.95414 148.988 5.13125 149.346C5.28116 149.649 5.12105 150 4.7736 150.13C4.68522 150.164 4.5932 150.179 4.50256 150.179ZM98.196 149.311C98.0093 149.311 97.8234 149.245 97.6881 149.115C97.434 148.87 97.4553 148.493 97.7356 148.271C98.0723 148.006 98.4099 147.737 98.7485 147.467C99.0273 147.244 99.4607 147.26 99.7165 147.503C99.9724 147.746 99.9537 148.123 99.6749 148.346C99.3343 148.619 98.9947 148.888 98.6559 149.156C98.5248 149.26 98.3601 149.311 98.196 149.311ZM101.728 146.464C101.546 146.464 101.364 146.401 101.229 146.276C100.97 146.036 100.983 145.659 101.258 145.433C101.589 145.161 101.921 144.887 102.254 144.611C102.529 144.384 102.962 144.393 103.223 144.632C103.484 144.871 103.473 145.249 103.199 145.476C102.864 145.753 102.53 146.028 102.198 146.301C102.066 146.41 101.897 146.464 101.728 146.464ZM2.85202 146.241C2.55802 146.241 2.28629 146.075 2.19653 145.817C2.06258 145.432 1.93302 145.038 1.81141 144.647C1.71254 144.329 1.92843 144.001 2.29369 143.915C2.65894 143.828 3.03516 144.017 3.13403 144.335C3.25215 144.715 3.37795 145.097 3.50785 145.47C3.61761 145.786 3.41309 146.119 3.05092 146.215C2.9848 146.232 2.91786 146.241 2.85202 146.241ZM105.205 143.566C105.026 143.566 104.848 143.505 104.713 143.385C104.45 143.148 104.456 142.77 104.728 142.541C105.055 142.265 105.383 141.986 105.712 141.706C105.983 141.476 106.417 141.481 106.681 141.717C106.945 141.953 106.94 142.33 106.669 142.561C106.339 142.842 106.01 143.121 105.682 143.398C105.549 143.51 105.377 143.566 105.205 143.566ZM1.69349 142.17C1.37243 142.17 1.08583 141.972 1.02184 141.687C0.933317 141.293 0.849383 140.891 0.772508 140.492C0.709885 140.167 0.96161 139.859 1.33475 139.804C1.70802 139.75 2.06122 139.969 2.12384 140.294C2.19873 140.683 2.2804 141.074 2.36659 141.458C2.43922 141.782 2.19715 142.095 1.8258 142.158C1.78147 142.166 1.73714 142.17 1.69349 142.17ZM108.641 140.631C108.465 140.631 108.288 140.572 108.154 140.454C107.888 140.22 107.89 139.842 108.159 139.61C108.483 139.331 108.808 139.05 109.135 138.767C109.403 138.534 109.837 138.535 110.103 138.769C110.37 139.003 110.369 139.381 110.101 139.613C109.774 139.897 109.448 140.178 109.123 140.458C108.99 140.573 108.816 140.631 108.641 140.631ZM0.987991 138.02C0.641097 138.02 0.343535 137.792 0.30729 137.484C0.26022 137.085 0.218015 136.679 0.181839 136.276C0.152378 135.947 0.43425 135.66 0.811496 135.634C1.18936 135.609 1.51844 135.854 1.54804 136.183C1.58332 136.576 1.6245 136.973 1.67047 137.362C1.70918 137.69 1.4354 137.983 1.05897 138.017C1.03499 138.019 1.01135 138.02 0.987991 138.02ZM112.049 137.67C111.874 137.67 111.699 137.612 111.565 137.496C111.297 137.264 111.296 136.886 111.564 136.652C111.885 136.371 112.208 136.088 112.533 135.803C112.799 135.569 113.233 135.568 113.502 135.8C113.77 136.033 113.772 136.411 113.505 136.645C113.18 136.93 112.856 137.213 112.534 137.495C112.4 137.612 112.225 137.67 112.049 137.67ZM115.438 134.693C115.264 134.693 115.09 134.636 114.956 134.521C114.687 134.289 114.685 133.911 114.951 133.677C115.271 133.394 115.593 133.11 115.916 132.825C116.182 132.59 116.616 132.588 116.885 132.819C117.155 133.05 117.158 133.428 116.892 133.663C116.568 133.949 116.246 134.233 115.925 134.516C115.791 134.634 115.615 134.693 115.438 134.693ZM0.697076 133.834C0.325038 133.834 0.0198004 133.574 0.0123323 133.249C0.00411042 132.891 0 132.527 0 132.167L0.000138001 132.037C0.00089167 131.708 0.307495 131.441 0.685221 131.441C0.6857 131.441 0.686182 131.441 0.68673 131.441C1.06507 131.442 1.37127 131.71 1.37045 132.039L1.37031 132.167C1.37031 132.519 1.37442 132.875 1.38236 133.225C1.3899 133.554 1.08933 133.827 0.710985 133.834C0.706395 133.834 0.701735 133.834 0.697076 133.834ZM118.817 131.708C118.643 131.708 118.47 131.651 118.336 131.536C118.067 131.305 118.063 130.927 118.329 130.692L119.293 129.838C119.559 129.603 119.993 129.6 120.262 129.831C120.532 130.063 120.535 130.441 120.27 130.676L119.305 131.53C119.171 131.648 118.994 131.708 118.817 131.708ZM0.787379 129.641C0.774361 129.641 0.761409 129.64 0.748254 129.64C0.37046 129.621 0.0814622 129.339 0.102702 129.01C0.128532 128.611 0.15971 128.204 0.195338 127.802C0.224457 127.474 0.553055 127.227 0.93126 127.253C1.30851 127.279 1.59072 127.566 1.5616 127.894C1.52666 128.288 1.49617 128.686 1.47089 129.077C1.45033 129.395 1.14811 129.641 0.787379 129.641ZM122.193 128.719C122.019 128.719 121.846 128.662 121.712 128.548C121.443 128.317 121.439 127.939 121.705 127.704L122.67 126.85C122.935 126.615 123.369 126.612 123.639 126.844C123.908 127.075 123.912 127.453 123.646 127.688L122.681 128.541C122.547 128.66 122.37 128.719 122.193 128.719ZM125.572 125.733C125.398 125.733 125.224 125.676 125.09 125.561C124.821 125.329 124.818 124.952 125.084 124.717C125.405 124.434 125.727 124.15 126.051 123.865C126.317 123.63 126.751 123.628 127.02 123.86C127.289 124.091 127.292 124.469 127.026 124.704C126.702 124.989 126.38 125.273 126.059 125.556C125.925 125.674 125.749 125.733 125.572 125.733ZM1.23225 125.466C1.20299 125.466 1.17346 125.464 1.14373 125.461C0.768468 125.418 0.503452 125.119 0.551824 124.792C0.61061 124.395 0.675079 123.991 0.743252 123.594C0.799161 123.268 1.14818 123.044 1.5222 123.092C1.89644 123.141 2.15446 123.444 2.09856 123.77C2.03168 124.16 1.96859 124.555 1.91089 124.945C1.86636 125.246 1.5716 125.466 1.23225 125.466ZM128.958 122.754C128.783 122.754 128.609 122.696 128.475 122.58C128.207 122.348 128.205 121.97 128.472 121.736C128.794 121.454 129.117 121.171 129.442 120.886C129.709 120.652 130.143 120.651 130.411 120.884C130.679 121.117 130.68 121.494 130.413 121.728C130.089 122.012 129.766 122.296 129.444 122.578C129.31 122.695 129.134 122.754 128.958 122.754ZM2.01476 121.329C1.97002 121.329 1.9246 121.325 1.87903 121.317C1.50802 121.252 1.26781 120.937 1.34235 120.614C1.43334 120.22 1.52995 119.821 1.62943 119.431C1.71138 119.109 2.07704 118.906 2.44675 118.977C2.81612 119.049 3.04921 119.367 2.96726 119.689C2.86977 120.072 2.77508 120.463 2.6858 120.849C2.62037 121.133 2.33439 121.329 2.01476 121.329ZM132.356 119.784C132.18 119.784 132.005 119.726 131.871 119.609C131.604 119.376 131.604 118.998 131.872 118.765C132.195 118.484 132.519 118.201 132.846 117.918C133.114 117.685 133.547 117.686 133.815 117.919C134.082 118.153 134.081 118.531 133.813 118.763C133.487 119.046 133.163 119.328 132.84 119.609C132.706 119.726 132.531 119.784 132.356 119.784ZM3.12766 117.25C3.06743 117.25 3.00618 117.243 2.94527 117.228C2.58043 117.141 2.36618 116.812 2.46676 116.494C2.58961 116.106 2.71841 115.714 2.84976 115.33C2.95781 115.014 3.33923 114.835 3.70196 114.929C4.06461 115.023 4.27104 115.355 4.163 115.671C4.03439 116.047 3.90819 116.431 3.7878 116.811C3.70408 117.076 3.4283 117.25 3.12766 117.25ZM135.768 116.827C135.592 116.827 135.415 116.768 135.281 116.65C135.015 116.416 135.017 116.038 135.286 115.806C135.611 115.526 135.937 115.245 136.265 114.963C136.534 114.731 136.968 114.734 137.234 114.968C137.5 115.203 137.497 115.581 137.228 115.812C136.9 116.094 136.574 116.374 136.25 116.654C136.117 116.769 135.942 116.827 135.768 116.827ZM139.197 113.884C139.02 113.884 138.842 113.825 138.708 113.705C138.443 113.47 138.447 113.092 138.718 112.861C139.044 112.582 139.372 112.303 139.702 112.023C139.973 111.792 140.406 111.797 140.671 112.033C140.935 112.269 140.93 112.646 140.659 112.877C140.33 113.157 140.003 113.436 139.677 113.714C139.543 113.828 139.37 113.884 139.197 113.884ZM4.57491 113.25C4.49844 113.25 4.42068 113.239 4.34456 113.215C3.98821 113.105 3.80247 112.763 3.9297 112.453C4.08591 112.071 4.24816 111.689 4.41191 111.316C4.54709 111.008 4.94325 110.854 5.29658 110.972C5.65005 111.089 5.82696 111.434 5.69178 111.742C5.53166 112.107 5.37297 112.481 5.22012 112.854C5.12015 113.098 4.8563 113.25 4.57491 113.25ZM142.645 110.959C142.466 110.959 142.287 110.898 142.153 110.777C141.89 110.54 141.897 110.162 142.169 109.933C142.497 109.656 142.827 109.378 143.159 109.099C143.431 108.871 143.865 108.877 144.127 109.115C144.39 109.352 144.382 109.73 144.11 109.959C143.779 110.237 143.45 110.514 143.122 110.791C142.989 110.903 142.817 110.959 142.645 110.959ZM6.37303 109.361C6.27861 109.361 6.18276 109.344 6.09109 109.307C5.74632 109.172 5.59325 108.818 5.7492 108.518C5.79318 108.433 5.83737 108.348 5.88177 108.264C6.03031 107.982 6.1842 107.698 6.33897 107.418C6.50348 107.121 6.91313 106.997 7.25393 107.14C7.59466 107.284 7.73751 107.641 7.57294 107.938C7.422 108.21 7.27195 108.487 7.12704 108.762C7.08374 108.845 7.04064 108.927 6.99775 109.01C6.88326 109.23 6.63393 109.361 6.37303 109.361ZM146.114 108.051C145.933 108.051 145.753 107.989 145.618 107.867C145.357 107.629 145.366 107.251 145.64 107.023C145.97 106.748 146.302 106.472 146.636 106.195C146.91 105.967 147.343 105.976 147.604 106.215C147.865 106.454 147.855 106.832 147.581 107.059C147.248 107.336 146.917 107.611 146.587 107.886C146.454 107.996 146.284 108.051 146.114 108.051ZM8.54627 105.622C8.43239 105.622 8.31708 105.597 8.21081 105.545C7.88105 105.383 7.76423 105.019 7.94984 104.732C8.17635 104.381 8.41095 104.028 8.64712 103.683C8.84081 103.4 9.26129 103.307 9.58647 103.476C9.9115 103.645 10.0179 104.011 9.82421 104.294C9.59386 104.631 9.36496 104.975 9.14399 105.317C9.01813 105.512 8.78566 105.622 8.54627 105.622ZM149.603 105.163C149.421 105.163 149.239 105.1 149.105 104.976C148.845 104.736 148.858 104.358 149.133 104.132C149.465 103.859 149.799 103.585 150.135 103.31C150.41 103.084 150.844 103.096 151.103 103.336C151.363 103.576 151.349 103.954 151.074 104.18C150.739 104.454 150.405 104.728 150.073 105C149.941 105.109 149.772 105.163 149.603 105.163ZM153.115 102.295C152.931 102.295 152.748 102.232 152.613 102.105C152.355 101.864 152.371 101.486 152.648 101.262C152.983 100.99 153.319 100.718 153.657 100.445C153.934 100.221 154.368 100.235 154.625 100.477C154.882 100.719 154.866 101.097 154.588 101.321C154.251 101.593 153.916 101.865 153.582 102.135C153.45 102.242 153.282 102.295 153.115 102.295ZM11.085 102.062C10.9519 102.062 10.8175 102.028 10.6993 101.958C10.3868 101.772 10.3064 101.401 10.5197 101.128C10.7796 100.797 11.0483 100.463 11.3184 100.135C11.5393 99.8676 11.9674 99.8066 12.2746 99.999C12.5818 100.191 12.6519 100.564 12.4311 100.832C12.1674 101.152 11.9051 101.478 11.6515 101.802C11.5188 101.971 11.3037 102.062 11.085 102.062ZM156.65 99.4493C156.464 99.4493 156.28 99.3843 156.145 99.256C155.889 99.0131 155.907 98.6355 156.186 98.4127C156.523 98.1433 156.861 97.8732 157.201 97.6025C157.481 97.3801 157.914 97.3971 158.169 97.6404C158.425 97.8838 158.405 98.2613 158.126 98.4837C157.787 98.7538 157.449 99.0233 157.113 99.2921C156.981 99.3973 156.815 99.4493 156.65 99.4493ZM13.964 98.7018C13.8119 98.7018 13.6591 98.658 13.532 98.5679C13.2385 98.3599 13.1941 97.9839 13.4329 97.7282C13.7241 97.4164 14.0242 97.1027 14.3247 96.796C14.5704 96.5452 15.0029 96.5155 15.2906 96.7295C15.5785 96.9435 15.6126 97.3203 15.367 97.571C15.0734 97.8707 14.7803 98.177 14.4959 98.4816C14.3605 98.6266 14.163 98.7018 13.964 98.7018ZM160.207 96.6249C160.02 96.6249 159.834 96.5587 159.699 96.4284C159.445 96.1839 159.467 95.8065 159.748 95.5853C160.087 95.318 160.427 95.0501 160.769 94.7816C161.051 94.561 161.484 94.5806 161.737 94.8255C161.99 95.0704 161.968 95.4478 161.687 95.6685C161.345 95.9365 161.005 96.2039 160.667 96.4706C160.536 96.574 160.371 96.6249 160.207 96.6249ZM17.1534 95.559C16.9829 95.559 16.8122 95.5039 16.6793 95.393C16.4062 95.1649 16.397 94.787 16.6589 94.549C16.978 94.259 17.3063 93.9674 17.6346 93.6824C17.9027 93.4497 18.3365 93.4503 18.6036 93.6838C18.8706 93.9173 18.87 94.2953 18.6019 94.528C18.2809 94.8067 17.96 95.0917 17.6481 95.3752C17.5136 95.4974 17.3336 95.559 17.1534 95.559ZM163.789 93.8229C163.6 93.8229 163.412 93.7555 163.277 93.6233C163.025 93.3772 163.05 92.9998 163.333 92.7805C163.674 92.5153 164.017 92.2495 164.361 91.9832C164.644 91.7643 165.077 91.7868 165.328 92.0333C165.58 92.2798 165.554 92.6571 165.271 92.8759C164.927 93.1417 164.585 93.4069 164.244 93.6716C164.114 93.773 163.951 93.8229 163.789 93.8229ZM20.622 92.6468C20.4333 92.6468 20.2456 92.5794 20.1103 92.4471C19.8585 92.201 19.8833 91.8237 20.1658 91.6043C20.5101 91.337 20.8635 91.0685 21.2163 90.8064C21.5042 90.5924 21.9366 90.6223 22.1822 90.8732C22.4278 91.1241 22.3934 91.5008 22.1055 91.7147C21.7603 91.9712 21.4145 92.2339 21.0777 92.4955C20.947 92.5969 20.7842 92.6468 20.622 92.6468ZM167.393 91.0436C167.203 91.0436 167.014 90.9749 166.878 90.8407C166.629 90.593 166.657 90.2159 166.941 89.9983C167.285 89.7352 167.63 89.4716 167.976 89.2075C168.261 88.9905 168.694 89.0156 168.943 89.2637C169.192 89.5119 169.163 89.8889 168.879 90.106C168.533 90.3696 168.188 90.6326 167.845 90.8951C167.715 90.9946 167.554 91.0436 167.393 91.0436ZM24.3382 89.9744C24.1321 89.9744 23.9283 89.8937 23.7934 89.7399C23.5636 89.478 23.621 89.1034 23.9217 88.9032C24.2879 88.6594 24.6634 88.4147 25.0379 88.176C25.3434 87.9814 25.7721 88.0393 25.9954 88.3054C26.2188 88.5714 26.1524 88.9449 25.847 89.1395C25.4802 89.3733 25.1125 89.6129 24.7539 89.8517C24.6296 89.9344 24.4833 89.9744 24.3382 89.9744ZM171.022 88.2871C170.83 88.2871 170.639 88.2172 170.503 88.0807C170.256 87.8315 170.287 87.4545 170.573 87.2388L170.844 87.035C171.101 86.841 171.359 86.6475 171.615 86.4548C171.902 86.2396 172.334 86.2674 172.582 86.5171C172.829 86.7668 172.797 87.1437 172.51 87.359C172.254 87.5514 171.997 87.7444 171.74 87.9383L171.47 88.1416C171.34 88.2392 171.181 88.2871 171.022 88.2871ZM28.2719 87.5479C28.0487 87.5479 27.8298 87.453 27.6982 87.2782C27.4908 87.0025 27.5792 86.6324 27.8957 86.4518C28.2813 86.2316 28.6761 86.0111 29.0691 85.7964C29.3897 85.6213 29.8125 85.7057 30.0135 85.9851C30.2145 86.2644 30.1175 86.6328 29.7969 86.8079C29.4117 87.0182 29.0248 87.2344 28.6468 87.4502C28.531 87.5163 28.4008 87.5479 28.2719 87.5479ZM174.674 85.5537C174.48 85.5537 174.288 85.4826 174.152 85.3442C173.907 85.0933 173.941 84.7166 174.229 84.5026C174.58 84.2419 174.929 83.9828 175.278 83.7251C175.566 83.5118 175.998 83.5425 176.243 83.7938C176.488 84.0451 176.453 84.4218 176.165 84.6351C175.817 84.8922 175.468 85.1508 175.118 85.4109C174.989 85.5068 174.831 85.5537 174.674 85.5537ZM32.3912 85.3717C32.1513 85.3717 31.9184 85.2617 31.7928 85.0664C31.6079 84.7788 31.7257 84.415 32.0558 84.2539C32.4567 84.0584 32.8666 83.8629 33.274 83.6731C33.6077 83.5175 34.0229 83.6272 34.2013 83.9179C34.3798 84.2086 34.254 84.5703 33.9203 84.7258C33.5205 84.9121 33.1185 85.1037 32.7254 85.2955C32.6195 85.3471 32.5046 85.3717 32.3912 85.3717ZM36.6674 83.4473C36.4111 83.4473 36.1654 83.3214 36.0481 83.1064C35.8857 82.8086 36.0311 82.4526 36.3729 82.3111C36.7875 82.1395 37.2113 81.9683 37.6323 81.8023C37.9772 81.6666 38.3831 81.7999 38.5389 82.1001C38.695 82.4005 38.5419 82.7542 38.1971 82.89C37.7838 83.0529 37.3679 83.2209 36.961 83.3894C36.866 83.4286 36.7659 83.4473 36.6674 83.4473ZM178.348 82.8436C178.153 82.8436 177.959 82.7712 177.824 82.6307C177.58 82.3783 177.618 82.0018 177.907 81.7897C178.261 81.5312 178.612 81.2742 178.962 81.019C179.253 80.8075 179.685 80.8408 179.928 81.0936C180.171 81.3464 180.132 81.7229 179.842 81.9345C179.492 82.1892 179.141 82.4457 178.789 82.7038C178.66 82.7977 178.504 82.8436 178.348 82.8436ZM41.0795 81.7718C40.8071 81.7718 40.5497 81.6294 40.4428 81.3956C40.3028 81.0893 40.4743 80.7422 40.8258 80.6202C41.2523 80.4723 41.6877 80.3253 42.1199 80.1832C42.474 80.0667 42.8693 80.2225 43.0028 80.5309C43.1364 80.8394 42.9577 81.1838 42.6036 81.3002C42.1791 81.4397 41.7515 81.5841 41.3328 81.7294C41.2496 81.7582 41.1638 81.7718 41.0795 81.7718ZM45.6049 80.3439C45.3166 80.3439 45.0484 80.1841 44.9539 79.9325C44.8362 79.6192 45.0324 79.2821 45.392 79.1796C45.8302 79.0546 46.2752 78.9315 46.7143 78.8137C47.0762 78.7167 47.4594 78.8933 47.5708 79.2084C47.6822 79.5234 47.4794 79.8575 47.1178 79.9545C46.6862 80.0703 46.2489 80.1914 45.8182 80.3141C45.7474 80.3343 45.6755 80.3439 45.6049 80.3439ZM182.046 80.1568C181.849 80.1568 181.653 80.0831 181.518 79.9405C181.276 79.6867 181.317 79.3104 181.608 79.1001C181.964 78.8436 182.318 78.5889 182.67 78.336C182.962 78.1262 183.394 78.1625 183.634 78.4168C183.875 78.6711 183.834 79.0473 183.542 79.257C183.19 79.5094 182.837 79.7636 182.482 80.0196C182.355 80.1119 182.2 80.1568 182.046 80.1568ZM50.2227 79.1615C49.9186 79.1615 49.6408 78.9837 49.5603 78.7154C49.4647 78.3964 49.6839 78.0703 50.0499 77.9869C50.4945 77.8857 50.947 77.7862 51.3949 77.6913C51.7628 77.6135 52.1331 77.8098 52.2226 78.1302C52.312 78.4505 52.0865 78.7733 51.7188 78.8512C51.2785 78.9446 50.8336 79.0423 50.3965 79.1419C50.3384 79.1551 50.2801 79.1615 50.2227 79.1615ZM54.9134 78.2217C54.5933 78.2217 54.3071 78.0252 54.2423 77.7413C54.1683 77.418 54.4093 77.1037 54.7804 77.0393C55.232 76.961 55.6903 76.8848 56.1427 76.8132C56.5154 76.7541 56.8717 76.9692 56.9394 77.2935C57.0072 77.6179 56.7603 77.9286 56.388 77.9877C55.9431 78.0582 55.4923 78.133 55.0481 78.2101C55.0028 78.2179 54.9578 78.2217 54.9134 78.2217ZM59.6593 77.5218C59.323 77.5218 59.0296 77.306 58.9816 77.0075C58.9292 76.681 59.1905 76.3793 59.5653 76.3337C60.0206 76.2782 60.4831 76.2252 60.94 76.176C61.3159 76.1356 61.6575 76.3682 61.7039 76.6953C61.7502 77.0225 61.4834 77.3205 61.1078 77.3609C60.6583 77.4092 60.2032 77.4614 59.7551 77.516C59.7229 77.5198 59.6909 77.5218 59.6593 77.5218ZM185.765 77.4934C185.567 77.4934 185.369 77.4185 185.234 77.2738C184.995 77.0184 185.039 76.6424 185.332 76.434C185.69 76.1796 186.046 75.9271 186.4 75.6766C186.693 75.4688 187.125 75.5076 187.363 75.7635C187.602 76.0193 187.557 76.3952 187.264 76.6031C186.911 76.8531 186.555 77.105 186.198 77.359C186.071 77.4494 185.918 77.4934 185.765 77.4934ZM189.507 74.8537C189.306 74.8537 189.108 74.7774 188.972 74.6307C188.735 74.3738 188.782 73.9981 189.077 73.7915C189.438 73.5391 189.796 73.2888 190.151 73.0409C190.447 72.8348 190.878 72.8765 191.114 73.1338C191.351 73.3911 191.303 73.7668 191.008 73.9728C190.653 74.2203 190.295 74.47 189.936 74.722C189.809 74.8106 189.657 74.8537 189.507 74.8537ZM193.271 72.2377C193.068 72.2377 192.868 72.1601 192.733 72.0114C192.498 71.7529 192.548 71.3775 192.845 71.1729C193.208 70.9223 193.568 70.6744 193.925 70.4291C194.222 70.2249 194.653 70.2694 194.887 70.5282C195.122 70.7871 195.071 71.1624 194.774 71.3665C194.417 71.6113 194.058 71.8587 193.696 72.1088C193.57 72.1956 193.419 72.2377 193.271 72.2377ZM197.056 69.6458C196.852 69.6458 196.651 69.5669 196.515 69.416C196.283 69.156 196.336 68.7809 196.634 68.5782C197 68.3295 197.363 68.0839 197.721 67.8414C198.02 67.6393 198.45 67.6863 198.682 67.9467C198.914 68.2071 198.86 68.5821 198.561 68.7843C198.204 69.0263 197.842 69.2714 197.477 69.5195C197.352 69.6046 197.203 69.6458 197.056 69.6458ZM200.864 67.0783C200.658 67.0783 200.455 66.998 200.32 66.845C200.089 66.5836 200.146 66.2088 200.446 66.008C200.815 65.761 201.179 65.5178 201.539 65.2782C201.839 65.078 202.269 65.1279 202.499 65.3897C202.729 65.6516 202.672 66.0262 202.371 66.2264C202.012 66.4655 201.649 66.7083 201.28 66.9548C201.156 67.038 201.009 67.0783 200.864 67.0783ZM204.693 64.5356C204.486 64.5356 204.281 64.4539 204.146 64.2987C203.918 64.0358 203.977 63.6615 204.279 63.4626C204.652 63.2168 205.019 62.9759 205.378 62.7398C205.681 62.5416 206.11 62.5944 206.338 62.8577C206.566 63.1211 206.505 63.4953 206.203 63.6936C205.844 63.9291 205.478 64.1695 205.106 64.4147C204.982 64.4962 204.837 64.5356 204.693 64.5356Z" fill="#848AD9"/>
<path d="M208.61 61.9752C208.4 61.9752 208.194 61.8921 208.059 61.7347C207.833 61.4702 207.896 61.0963 208.2 60.8994C208.386 60.779 208.569 60.6601 208.75 60.5429C209.054 60.3464 209.483 60.4016 209.709 60.6663C209.934 60.9309 209.871 61.3048 209.567 61.5013C209.387 61.6183 209.203 61.7368 209.018 61.857C208.895 61.9368 208.752 61.9752 208.61 61.9752Z" fill="#848AD9"/>
</svg>
